<svg width="14" height="14" viewBox="0 0 14 14" fill="none" xmlns="http://www.w3.org/2000/svg">
<g clip-path="url(#clip0)">
<path d="M4.43875e-09 4.53343L6.77982 8.05952C6.84783 8.09489 6.92335 8.11335 7 8.11335C7.07665 8.11335 7.15217 8.09489 7.22018 8.05952L14 4.53407V10.6591C14 11.1873 13.7979 11.6956 13.4351 12.0796C13.0723 12.4636 12.5763 12.6942 12.0489 12.7241L11.9318 12.7273H2.06818C1.53991 12.7273 1.03165 12.5252 0.647671 12.1624C0.263688 11.7996 0.0330901 11.3036 0.0031819 10.7762L4.43875e-09 10.6591V4.53343ZM2.06818 1.27271H11.9318C12.4601 1.27267 12.9683 1.47478 13.3523 1.83759C13.7363 2.20039 13.9669 2.69637 13.9968 3.2238L14 3.34089V3.45798L7 7.09798L4.43875e-09 3.45798V3.34089C-3.45843e-05 2.81262 0.20208 2.30436 0.564882 1.92038C0.927684 1.53639 1.42367 1.3058 1.95109 1.27589L2.06818 1.27271H11.9318H2.06818Z" fill="#BDBDBD"/>
</g>
<defs>
<clipPath id="clip0">
<rect width="14" height="14" fill="white"/>
</clipPath>
</defs>
</svg>
