<svg width="13" height="13" viewBox="0 0 13 13" fill="none" xmlns="http://www.w3.org/2000/svg">
<g clip-path="url(#clip0)">
<path d="M1.78114 0.711894C2.1065 0.478763 2.50196 0.366525 2.90171 0.393863C3.30145 0.421201 3.68135 0.586467 3.97817 0.862148L4.08256 0.966972L5.0473 2.02397C5.34035 2.34471 5.53486 2.74475 5.60664 3.17433C5.67842 3.60391 5.6243 4.04408 5.45101 4.44008L5.37899 4.58819L4.78924 5.69972C4.68383 5.90223 4.99594 6.44426 5.89423 7.24849C6.70107 7.97266 7.25497 8.25135 7.46489 8.2062L7.50053 8.19423L7.54163 8.17104L9.06335 7.07134C9.2678 6.92335 9.51058 6.83867 9.76266 6.82743C10.0147 6.81619 10.2655 6.87887 10.4848 7.00796L10.5936 7.07937L12.2504 8.28793C12.5753 8.52464 12.8123 8.86567 12.9222 9.25485C13.0321 9.64403 13.0085 10.0582 12.8551 10.4291L12.7897 10.5693L12.4852 11.1541C12.2123 11.6785 11.7959 12.1108 11.2854 12.3996C10.7748 12.6883 10.1917 12.8215 9.60534 12.7832C7.7803 12.6638 5.81807 11.6499 3.71051 9.76094C1.59847 7.86693 0.362379 6.01295 0.0220697 4.18389C-0.0806824 3.63085 -0.0340728 3.06149 0.156947 2.53631C0.347966 2.01114 0.67626 1.54975 1.10695 1.20119L1.24881 1.09346L1.78114 0.711894Z" fill="#BDBDBD"/>
</g>
<defs>
<clipPath id="clip0">
<rect width="13" height="13" fill="white"/>
</clipPath>
</defs>
</svg>
