<svg width="22" height="20" viewBox="0 0 22 20" fill="none" xmlns="http://www.w3.org/2000/svg">
<path d="M11 4.72234L11.8001 3.66682C12.7247 2.44559 14.1032 1.55579 15.7498 1.55579C16.61 1.55572 17.454 1.78923 18.1919 2.2314C18.9297 2.67357 19.5336 3.30779 19.9391 4.06637C20.3446 4.82495 20.5365 5.6794 20.4943 6.53853C20.4521 7.39766 20.1775 8.22921 19.6996 8.94442C18.8478 10.2174 11 18.4441 11 18.4441" stroke="#2D4059" stroke-width="2" stroke-linecap="round"/>
<path d="M11 4.72234L10.2 3.66682C9.27532 2.44559 7.89681 1.55579 6.2502 1.55579C5.39004 1.55572 4.546 1.78923 3.80818 2.2314C3.07037 2.67357 2.46647 3.30779 2.06096 4.06637C1.65545 4.82495 1.46354 5.6794 1.50571 6.53853C1.54789 7.39766 1.82258 8.22921 2.30045 8.94442C3.15225 10.2174 11 18.4441 11 18.4441" stroke="#2D4059" stroke-width="2" stroke-linecap="round"/>
</svg>
