<svg width="18" height="18" viewBox="0 0 18 18" fill="none" xmlns="http://www.w3.org/2000/svg">
<path fill-rule="evenodd" clip-rule="evenodd" d="M7.31154 0.62192C7.78254 0.220489 8.38115 0 9 0C9.61885 0 10.2175 0.220489 10.6885 0.62192L11.7912 1.56246C11.9304 1.68113 12.1035 1.7528 12.2858 1.76723L13.7305 1.88262C14.347 1.93199 14.9259 2.19932 15.3633 2.63671C15.8007 3.0741 16.068 3.65296 16.1174 4.26954L16.2328 5.71506C16.2474 5.89707 16.319 6.06983 16.4375 6.20875L17.3781 7.31154C17.7795 7.78254 18 8.38115 18 9C18 9.61885 17.7795 10.2175 17.3781 10.6885L16.4375 11.7912C16.3189 11.9304 16.2472 12.1035 16.2328 12.2858L16.1174 13.7305C16.068 14.347 15.8007 14.9259 15.3633 15.3633C14.9259 15.8007 14.347 16.068 13.7305 16.1174L12.2849 16.2328C12.1029 16.2474 11.9302 16.319 11.7912 16.4375L10.6885 17.3781C10.2175 17.7795 9.61885 18 9 18C8.38115 18 7.78254 17.7795 7.31154 17.3781L6.20875 16.4375C6.0696 16.3189 5.8965 16.2472 5.71419 16.2328L4.26954 16.1174C3.65296 16.068 3.0741 15.8007 2.63671 15.3633C2.19932 14.9259 1.93199 14.347 1.88262 13.7305L1.76723 12.2849C1.75262 12.1029 1.68096 11.9302 1.56246 11.7912L0.62192 10.6885C0.220489 10.2175 0 9.61885 0 9C0 8.38115 0.220489 7.78254 0.62192 7.31154L1.56246 6.20875C1.68113 6.0696 1.7528 5.8965 1.76723 5.71419L1.88262 4.26954C1.93199 3.65296 2.19932 3.0741 2.63671 2.63671C3.0741 2.19932 3.65296 1.93199 4.26954 1.88262L5.71506 1.76723C5.89707 1.75262 6.06983 1.68096 6.20875 1.56246L7.31154 0.62192ZM12.2164 7.87812C12.3744 7.71448 12.4619 7.49531 12.4599 7.26781C12.4579 7.04032 12.3667 6.8227 12.2058 6.66183C12.045 6.50096 11.8273 6.40971 11.5998 6.40773C11.3723 6.40575 11.1532 6.49321 10.9895 6.65126L8.13234 9.50845L7.01047 8.38657C6.84682 8.22852 6.62765 8.14106 6.40016 8.14304C6.17266 8.14502 5.95504 8.23627 5.79417 8.39714C5.6333 8.55801 5.54205 8.77563 5.54007 9.00312C5.5381 9.23062 5.62555 9.44979 5.7836 9.61343L7.51891 11.3487C7.68162 11.5114 7.90227 11.6028 8.13234 11.6028C8.36242 11.6028 8.58307 11.5114 8.74578 11.3487L12.2164 7.87812Z" fill="#2DAA0D"/>
</svg>
