<svg width="17" height="14" viewBox="0 0 17 14" fill="none" xmlns="http://www.w3.org/2000/svg">
<path d="M15.95 1.00258C15.8819 0.995559 15.8132 0.995559 15.745 1.00258H1.74501C1.65528 1.00396 1.56615 1.01742 1.48001 1.04258L8.70501 8.23758L15.95 1.00258Z" fill="#FFCCA8"/>
<path d="M16.69 1.69775L9.41 8.94775C9.22264 9.13401 8.96919 9.23855 8.705 9.23855C8.44081 9.23855 8.18736 9.13401 8 8.94775L0.785 1.75275C0.76282 1.83427 0.751059 1.91828 0.75 2.00275V12.0028C0.75 12.268 0.855357 12.5223 1.04289 12.7099C1.23043 12.8974 1.48478 13.0028 1.75 13.0028H15.75C16.0152 13.0028 16.2696 12.8974 16.4571 12.7099C16.6446 12.5223 16.75 12.268 16.75 12.0028V2.00275C16.746 1.89858 16.7258 1.79567 16.69 1.69775ZM2.435 12.0028H1.74V11.2878L5.375 7.68275L6.08 8.38775L2.435 12.0028ZM15.74 12.0028H15.04L11.395 8.38775L12.1 7.68275L15.735 11.2878L15.74 12.0028Z" fill="#FFCCA8"/>
</svg>
