<svg width="18" height="13" viewBox="0 0 18 13" fill="none" xmlns="http://www.w3.org/2000/svg">
<path d="M17.4699 0.651741C16.3789 0.179621 15.2871 3.49015e-08 14.1959 3.49015e-08C10.7318 -0.000290144 7.26795 1.80897 3.80385 1.80897C2.93508 1.80897 2.06687 1.69522 1.19811 1.41085C1.10051 1.37893 1.00264 1.36384 0.907017 1.36384C0.422993 1.36384 0 1.75036 0 2.2869V11.4931C0 11.8596 0.203341 12.2069 0.529867 12.348C1.62082 12.8204 2.71261 13 3.80385 13C7.26795 13 10.7321 11.1907 14.1962 11.1907C15.0649 11.1907 15.9331 11.3045 16.8019 11.5889C16.8995 11.6208 16.9974 11.6359 17.093 11.6359C17.577 11.6359 18 11.2494 18 10.7128V1.5069C17.9997 1.14011 17.7964 0.793058 17.4699 0.651741ZM1.34998 2.90817C1.91585 3.05442 2.50646 3.12783 3.11395 3.1673C2.94858 4.02013 2.22184 4.66288 1.34998 4.66288V2.90817ZM1.34998 11.1783V9.79179C2.31662 9.79179 3.09876 10.5831 3.14179 11.5735C2.50815 11.521 1.91585 11.3904 1.34998 11.1783ZM8.99986 9.28571C7.75703 9.28571 6.74989 8.03824 6.74989 6.5C6.74989 4.96147 7.75732 3.71429 8.99986 3.71429C10.2424 3.71429 11.2498 4.96147 11.2498 6.5C11.2498 8.03882 10.2421 9.28571 8.99986 9.28571ZM16.6497 10.0918C16.157 9.96444 15.6454 9.89306 15.122 9.84692C15.2871 9.09013 15.8954 8.51558 16.6497 8.41692V10.0918ZM16.6497 3.24042C15.781 3.12696 15.1068 2.37859 15.0801 1.45438C15.6297 1.51734 16.1514 1.63516 16.6497 1.82174V3.24042Z" fill="#476890"/>
</svg>
