<svg width="22" height="22" viewBox="0 0 22 22" fill="none" xmlns="http://www.w3.org/2000/svg">
<g clip-path="url(#clip0)">
<path d="M4.6875 3.125C4.6875 2.42881 4.96406 1.76113 5.45634 1.26884C5.94863 0.776562 6.61631 0.5 7.3125 0.5L15.1875 0.5C15.8837 0.5 16.5514 0.776562 17.0437 1.26884C17.5359 1.76113 17.8125 2.42881 17.8125 3.125V18.875C17.8125 19.5712 17.5359 20.2389 17.0437 20.7312C16.5514 21.2234 15.8837 21.5 15.1875 21.5H7.3125C6.61631 21.5 5.94863 21.2234 5.45634 20.7312C4.96406 20.2389 4.6875 19.5712 4.6875 18.875V3.125ZM12.5625 17.5625C12.5625 17.2144 12.4242 16.8806 12.1781 16.6344C11.9319 16.3883 11.5981 16.25 11.25 16.25C10.9019 16.25 10.5681 16.3883 10.3219 16.6344C10.0758 16.8806 9.9375 17.2144 9.9375 17.5625C9.9375 17.9106 10.0758 18.2444 10.3219 18.4906C10.5681 18.7367 10.9019 18.875 11.25 18.875C11.5981 18.875 11.9319 18.7367 12.1781 18.4906C12.4242 18.2444 12.5625 17.9106 12.5625 17.5625Z" fill="#FFCCA8"/>
</g>
<defs>
<clipPath id="clip0">
<rect width="21" height="21" fill="white" transform="translate(0.75 0.5)"/>
</clipPath>
</defs>
</svg>
