<svg width="25" height="24" viewBox="0 0 25 24" fill="none" xmlns="http://www.w3.org/2000/svg">
<path d="M8.36702 8.712L11.572 6.384C11.9318 6.1207 12.3694 5.98551 12.815 6C13.3585 6.01355 13.8843 6.19611 14.3193 6.52228C14.7542 6.84846 15.0768 7.30205 15.242 7.82C15.428 8.403 15.598 8.797 15.752 9.002C16.2173 9.6228 16.8209 10.1266 17.5149 10.4734C18.2089 10.8203 18.9742 11.0005 19.75 11V13C18.7173 13.0011 17.6972 12.7733 16.7631 12.3329C15.829 11.8925 15.0042 11.2504 14.348 10.453L13.651 14.408L15.712 16.138L17.935 22.246L16.055 22.93L14.015 17.326L10.625 14.481C10.3468 14.2564 10.1339 13.9612 10.0085 13.6264C9.88314 13.2915 9.84981 12.9291 9.91202 12.577L10.421 9.692L9.74402 10.184L7.61702 13.112L5.99902 11.936L8.35002 8.7L8.36702 8.712ZM14.25 5.5C13.7196 5.5 13.2109 5.28929 12.8358 4.91421C12.4607 4.53914 12.25 4.03043 12.25 3.5C12.25 2.96957 12.4607 2.46086 12.8358 2.08579C13.2109 1.71071 13.7196 1.5 14.25 1.5C14.7805 1.5 15.2892 1.71071 15.6642 2.08579C16.0393 2.46086 16.25 2.96957 16.25 3.5C16.25 4.03043 16.0393 4.53914 15.6642 4.91421C15.2892 5.28929 14.7805 5.5 14.25 5.5ZM11.278 18.681L8.06402 22.511L6.53202 21.226L9.50802 17.68L10.254 15.5L12.045 17L11.278 18.681Z" fill="#FFCCA8"/>
</svg>
