<svg width="9" height="9" viewBox="0 0 9 9" fill="none" xmlns="http://www.w3.org/2000/svg">
<path d="M2.85348e-09 2.91437L4.35845 5.18114C4.40217 5.20387 4.45072 5.21574 4.5 5.21574C4.54928 5.21574 4.59783 5.20387 4.64155 5.18114L9 2.91477V6.85227C9.00002 7.19188 8.87009 7.51861 8.63686 7.76546C8.40363 8.01231 8.08478 8.16055 7.74573 8.17977L7.67045 8.18182H1.32955C0.989944 8.18184 0.663207 8.05191 0.41636 7.81868C0.169514 7.58545 0.0212722 7.2666 0.0020455 6.92755L2.85348e-09 6.85227V2.91437ZM1.32955 0.818184H7.67045C8.01006 0.818162 8.33679 0.948092 8.58364 1.18132C8.83049 1.41455 8.97873 1.7334 8.99795 2.07246L9 2.14773V2.223L4.5 4.563L2.85348e-09 2.223V2.14773C-2.22328e-05 1.80813 0.129909 1.48139 0.363138 1.23454C0.596368 0.987698 0.915216 0.839456 1.25427 0.820229L1.32955 0.818184H7.67045H1.32955Z" fill="#879EBB"/>
</svg>
