<svg width="9" height="12" viewBox="0 0 9 12" fill="none" xmlns="http://www.w3.org/2000/svg">
<path d="M2.38819 0.0638735C2.71075 -0.0351018 3.05688 -0.0186587 3.36897 0.110466C3.68106 0.23959 3.94029 0.473605 4.10349 0.773556L4.15877 0.885335L4.64601 1.98887C4.79411 2.32382 4.84218 2.69569 4.78425 3.05822C4.72632 3.42076 4.56495 3.75796 4.3202 4.02789L4.2229 4.12692L3.45334 4.85686C3.31476 4.99039 3.4187 5.50728 3.92068 6.391C4.37106 7.18621 4.73889 7.55755 4.91875 7.57781H4.95045L4.98951 7.57031L6.50062 7.09994C6.70371 7.03655 6.92044 7.03404 7.12489 7.09271C7.32934 7.15138 7.51285 7.26875 7.65349 7.43077L7.7213 7.51704L8.72085 8.92741C8.91698 9.20376 9.0148 9.53986 8.99819 9.88035C8.98157 10.2208 8.85152 10.5454 8.62944 10.8006L8.53951 10.8952L8.13925 11.2808C7.78049 11.6265 7.33171 11.8602 6.84626 11.954C6.36081 12.0477 5.85912 11.9976 5.40083 11.8096C3.97449 11.2245 2.67862 9.88765 1.50143 7.81262C0.322028 5.73233 -0.168161 3.91912 0.0507656 2.36622C0.117078 1.89671 0.307121 1.45426 0.600704 1.08586C0.894286 0.717459 1.28044 0.43688 1.71815 0.273928L1.86041 0.225915L2.38819 0.0638735Z" fill="#879EBB"/>
</svg>
