<svg width="12" height="12" viewBox="0 0 12 12" fill="none" xmlns="http://www.w3.org/2000/svg">
<path d="M11.1429 7.28571V8.57143C11.1429 9.32589 10.8571 9.96429 10.2857 10.4866V11.7857C10.2857 11.8482 10.2656 11.8996 10.2254 11.9397C10.1853 11.9799 10.1339 12 10.0714 12H9.64286C9.58036 12 9.52902 11.9799 9.48884 11.9397C9.44866 11.8996 9.42857 11.8482 9.42857 11.7857V10.9955C9.14732 11.0938 8.86161 11.1429 8.57143 11.1429H3.42857C3.13839 11.1429 2.85268 11.0938 2.57143 10.9955V11.7321C2.57143 11.808 2.55022 11.8717 2.50781 11.923C2.4654 11.9743 2.41518 12 2.35714 12H1.92857C1.87054 12 1.82031 11.9743 1.7779 11.923C1.73549 11.8717 1.71429 11.808 1.71429 11.7321V10.4866C1.14286 9.96429 0.857143 9.32589 0.857143 8.57143V7.28571H11.1429ZM4.71429 4.5C4.71429 4.5625 4.6942 4.61384 4.65402 4.65402C4.61384 4.6942 4.5625 4.71429 4.5 4.71429C4.4375 4.71429 4.38616 4.6942 4.34598 4.65402C4.3058 4.61384 4.28571 4.5625 4.28571 4.5C4.28571 4.4375 4.3058 4.38616 4.34598 4.34598C4.38616 4.3058 4.4375 4.28571 4.5 4.28571C4.5625 4.28571 4.61384 4.3058 4.65402 4.34598C4.6942 4.38616 4.71429 4.4375 4.71429 4.5ZM5.14286 4.07143C5.14286 4.13393 5.12277 4.18527 5.08259 4.22545C5.04241 4.26562 4.99107 4.28571 4.92857 4.28571C4.86607 4.28571 4.81473 4.26562 4.77455 4.22545C4.73438 4.18527 4.71429 4.13393 4.71429 4.07143C4.71429 4.00893 4.73438 3.95759 4.77455 3.91741C4.81473 3.87723 4.86607 3.85714 4.92857 3.85714C4.99107 3.85714 5.04241 3.87723 5.08259 3.91741C5.12277 3.95759 5.14286 4.00893 5.14286 4.07143ZM4.71429 3.64286C4.71429 3.70536 4.6942 3.7567 4.65402 3.79688C4.61384 3.83705 4.5625 3.85714 4.5 3.85714C4.4375 3.85714 4.38616 3.83705 4.34598 3.79688C4.3058 3.7567 4.28571 3.70536 4.28571 3.64286C4.28571 3.58036 4.3058 3.52902 4.34598 3.48884C4.38616 3.44866 4.4375 3.42857 4.5 3.42857C4.5625 3.42857 4.61384 3.44866 4.65402 3.48884C4.6942 3.52902 4.71429 3.58036 4.71429 3.64286ZM5.57143 3.64286C5.57143 3.70536 5.55134 3.7567 5.51116 3.79688C5.47098 3.83705 5.41964 3.85714 5.35714 3.85714C5.29464 3.85714 5.2433 3.83705 5.20312 3.79688C5.16295 3.7567 5.14286 3.70536 5.14286 3.64286C5.14286 3.58036 5.16295 3.52902 5.20312 3.48884C5.2433 3.44866 5.29464 3.42857 5.35714 3.42857C5.41964 3.42857 5.47098 3.44866 5.51116 3.48884C5.55134 3.52902 5.57143 3.58036 5.57143 3.64286ZM5.14286 3.21429C5.14286 3.27679 5.12277 3.32812 5.08259 3.3683C5.04241 3.40848 4.99107 3.42857 4.92857 3.42857C4.86607 3.42857 4.81473 3.40848 4.77455 3.3683C4.73438 3.32812 4.71429 3.27679 4.71429 3.21429C4.71429 3.15179 4.73438 3.10045 4.77455 3.06027C4.81473 3.02009 4.86607 3 4.92857 3C4.99107 3 5.04241 3.02009 5.08259 3.06027C5.12277 3.10045 5.14286 3.15179 5.14286 3.21429ZM4.71429 2.78571C4.71429 2.84821 4.6942 2.89955 4.65402 2.93973C4.61384 2.97991 4.5625 3 4.5 3C4.4375 3 4.38616 2.97991 4.34598 2.93973C4.3058 2.89955 4.28571 2.84821 4.28571 2.78571C4.28571 2.72321 4.3058 2.67188 4.34598 2.6317C4.38616 2.59152 4.4375 2.57143 4.5 2.57143C4.5625 2.57143 4.61384 2.59152 4.65402 2.6317C4.6942 2.67188 4.71429 2.72321 4.71429 2.78571ZM12 6.21429V6.64286C12 6.70536 11.9799 6.7567 11.9397 6.79688C11.8996 6.83705 11.8482 6.85714 11.7857 6.85714H0.214286C0.151786 6.85714 0.100446 6.83705 0.0602679 6.79688C0.0200893 6.7567 0 6.70536 0 6.64286V6.21429C0 6.15179 0.0200893 6.10045 0.0602679 6.06027C0.100446 6.02009 0.151786 6 0.214286 6H0.857143V1.71429C0.857143 1.24107 1.02455 0.837054 1.35938 0.502232C1.6942 0.167411 2.09821 0 2.57143 0C3.05357 0 3.46429 0.174107 3.80357 0.522321C4.00893 0.4375 4.22768 0.410714 4.45982 0.441964C4.69196 0.473214 4.89955 0.560268 5.08259 0.703125L5.22991 0.555804C5.27902 0.506696 5.32812 0.506696 5.37723 0.555804L5.65848 0.837054C5.70759 0.886161 5.70759 0.935268 5.65848 0.984375L3.5558 3.08705C3.5067 3.13616 3.45759 3.13616 3.40848 3.08705L3.12723 2.8058C3.07812 2.7567 3.07812 2.70759 3.12723 2.65848L3.27455 2.51116C3.11384 2.3058 3.02344 2.07366 3.00335 1.81473C2.98326 1.5558 3.03571 1.31473 3.16071 1.09152C2.99554 0.935268 2.79911 0.857143 2.57143 0.857143C2.33482 0.857143 2.13281 0.940848 1.9654 1.10826C1.79799 1.27567 1.71429 1.47768 1.71429 1.71429V6H11.7857C11.8482 6 11.8996 6.02009 11.9397 6.06027C11.9799 6.10045 12 6.15179 12 6.21429ZM6 3.21429C6 3.27679 5.97991 3.32812 5.93973 3.3683C5.89955 3.40848 5.84821 3.42857 5.78571 3.42857C5.72321 3.42857 5.67188 3.40848 5.6317 3.3683C5.59152 3.32812 5.57143 3.27679 5.57143 3.21429C5.57143 3.15179 5.59152 3.10045 5.6317 3.06027C5.67188 3.02009 5.72321 3 5.78571 3C5.84821 3 5.89955 3.02009 5.93973 3.06027C5.97991 3.10045 6 3.15179 6 3.21429ZM5.57143 2.78571C5.57143 2.84821 5.55134 2.89955 5.51116 2.93973C5.47098 2.97991 5.41964 3 5.35714 3C5.29464 3 5.2433 2.97991 5.20312 2.93973C5.16295 2.89955 5.14286 2.84821 5.14286 2.78571C5.14286 2.72321 5.16295 2.67188 5.20312 2.6317C5.2433 2.59152 5.29464 2.57143 5.35714 2.57143C5.41964 2.57143 5.47098 2.59152 5.51116 2.6317C5.55134 2.67188 5.57143 2.72321 5.57143 2.78571ZM5.14286 2.35714C5.14286 2.41964 5.12277 2.47098 5.08259 2.51116C5.04241 2.55134 4.99107 2.57143 4.92857 2.57143C4.86607 2.57143 4.81473 2.55134 4.77455 2.51116C4.73438 2.47098 4.71429 2.41964 4.71429 2.35714C4.71429 2.29464 4.73438 2.2433 4.77455 2.20312C4.81473 2.16295 4.86607 2.14286 4.92857 2.14286C4.99107 2.14286 5.04241 2.16295 5.08259 2.20312C5.12277 2.2433 5.14286 2.29464 5.14286 2.35714ZM6.42857 2.78571C6.42857 2.84821 6.40848 2.89955 6.3683 2.93973C6.32812 2.97991 6.27679 3 6.21429 3C6.15179 3 6.10045 2.97991 6.06027 2.93973C6.02009 2.89955 6 2.84821 6 2.78571C6 2.72321 6.02009 2.67188 6.06027 2.6317C6.10045 2.59152 6.15179 2.57143 6.21429 2.57143C6.27679 2.57143 6.32812 2.59152 6.3683 2.6317C6.40848 2.67188 6.42857 2.72321 6.42857 2.78571ZM6 2.35714C6 2.41964 5.97991 2.47098 5.93973 2.51116C5.89955 2.55134 5.84821 2.57143 5.78571 2.57143C5.72321 2.57143 5.67188 2.55134 5.6317 2.51116C5.59152 2.47098 5.57143 2.41964 5.57143 2.35714C5.57143 2.29464 5.59152 2.2433 5.6317 2.20312C5.67188 2.16295 5.72321 2.14286 5.78571 2.14286C5.84821 2.14286 5.89955 2.16295 5.93973 2.20312C5.97991 2.2433 6 2.29464 6 2.35714ZM5.57143 1.92857C5.57143 1.99107 5.55134 2.04241 5.51116 2.08259C5.47098 2.12277 5.41964 2.14286 5.35714 2.14286C5.29464 2.14286 5.2433 2.12277 5.20312 2.08259C5.16295 2.04241 5.14286 1.99107 5.14286 1.92857C5.14286 1.86607 5.16295 1.81473 5.20312 1.77455C5.2433 1.73438 5.29464 1.71429 5.35714 1.71429C5.41964 1.71429 5.47098 1.73438 5.51116 1.77455C5.55134 1.81473 5.57143 1.86607 5.57143 1.92857ZM6.85714 2.35714C6.85714 2.41964 6.83705 2.47098 6.79688 2.51116C6.7567 2.55134 6.70536 2.57143 6.64286 2.57143C6.58036 2.57143 6.52902 2.55134 6.48884 2.51116C6.44866 2.47098 6.42857 2.41964 6.42857 2.35714C6.42857 2.29464 6.44866 2.2433 6.48884 2.20312C6.52902 2.16295 6.58036 2.14286 6.64286 2.14286C6.70536 2.14286 6.7567 2.16295 6.79688 2.20312C6.83705 2.2433 6.85714 2.29464 6.85714 2.35714ZM6.42857 1.92857C6.42857 1.99107 6.40848 2.04241 6.3683 2.08259C6.32812 2.12277 6.27679 2.14286 6.21429 2.14286C6.15179 2.14286 6.10045 2.12277 6.06027 2.08259C6.02009 2.04241 6 1.99107 6 1.92857C6 1.86607 6.02009 1.81473 6.06027 1.77455C6.10045 1.73438 6.15179 1.71429 6.21429 1.71429C6.27679 1.71429 6.32812 1.73438 6.3683 1.77455C6.40848 1.81473 6.42857 1.86607 6.42857 1.92857ZM7.28571 1.92857C7.28571 1.99107 7.26562 2.04241 7.22545 2.08259C7.18527 2.12277 7.13393 2.14286 7.07143 2.14286C7.00893 2.14286 6.95759 2.12277 6.91741 2.08259C6.87723 2.04241 6.85714 1.99107 6.85714 1.92857C6.85714 1.86607 6.87723 1.81473 6.91741 1.77455C6.95759 1.73438 7.00893 1.71429 7.07143 1.71429C7.13393 1.71429 7.18527 1.73438 7.22545 1.77455C7.26562 1.81473 7.28571 1.86607 7.28571 1.92857Z" fill="#476891"/>
</svg>
