<svg width="9" height="12" viewBox="0 0 9 12" fill="none" xmlns="http://www.w3.org/2000/svg">
<path d="M4.5 12L0.5625 6.26087L8.4375 6.26087L4.5 12Z" fill="#E0E0E0"/>
<path fill-rule="evenodd" clip-rule="evenodd" d="M4.5 8.34783C6.98528 8.34783 9 6.4791 9 4.17391C9 1.86872 6.98528 0 4.5 0C2.01472 0 0 1.86872 0 4.17391C0 6.4791 2.01472 8.34783 4.5 8.34783ZM4.5 6.26087C5.74264 6.26087 6.75 5.32651 6.75 4.17391C6.75 3.02132 5.74264 2.08696 4.5 2.08696C3.25736 2.08696 2.25 3.02132 2.25 4.17391C2.25 5.32651 3.25736 6.26087 4.5 6.26087Z" fill="#E0E0E0"/>
</svg>
