<svg width="51" height="51" viewBox="0 0 51 51" fill="none" xmlns="http://www.w3.org/2000/svg">
<circle cx="25.5" cy="24.5" r="24.5" fill="#2DAA0D"/>
<path d="M20.5607 21.4393C19.9749 20.8536 19.0251 20.8536 18.4393 21.4393C17.8536 22.0251 17.8536 22.9749 18.4393 23.5607L20.5607 21.4393ZM24 27L22.9393 28.0607C23.5251 28.6464 24.4749 28.6464 25.0607 28.0607L24 27ZM34.5607 18.5607C35.1464 17.9749 35.1464 17.0251 34.5607 16.4393C33.9749 15.8536 33.0251 15.8536 32.4393 16.4393L34.5607 18.5607ZM18.4393 23.5607L22.9393 28.0607L25.0607 25.9393L20.5607 21.4393L18.4393 23.5607ZM25.0607 28.0607L34.5607 18.5607L32.4393 16.4393L22.9393 25.9393L25.0607 28.0607Z" fill="#F6F6F6"/>
</svg>
