<svg width="45" height="51" viewBox="0 0 45 51" fill="none" xmlns="http://www.w3.org/2000/svg">
<path fill-rule="evenodd" clip-rule="evenodd" d="M22.5 0C20.3006 0 16.6255 0.844688 13.167 1.785C9.62889 2.74125 6.06208 3.87281 3.9647 4.55813C3.0878 4.84771 2.31036 5.3788 1.72171 6.09036C1.13307 6.80192 0.757083 7.66511 0.636955 8.58075C-1.2628 22.8512 3.14552 33.4273 8.49414 40.4239C10.7623 43.4168 13.4667 46.0525 16.5171 48.2428C17.7475 49.113 18.8886 49.7792 19.8576 50.235C20.7501 50.6558 21.7095 51 22.5 51C23.2905 51 24.2468 50.6558 25.1425 50.235C26.3106 49.6672 27.4282 49.0007 28.483 48.2428C31.5334 46.0525 34.2378 43.4169 36.5059 40.4239C41.8545 33.4273 46.2628 22.8512 44.3631 8.58075C44.2432 7.66467 43.8673 6.80098 43.2787 6.08887C42.69 5.37676 41.9125 4.8451 41.0353 4.55494C37.9907 3.55665 34.9223 2.63201 31.833 1.78181C28.3746 0.847875 24.6994 0 22.5 0ZM29.3404 16.4029C29.6397 16.1036 30.0455 15.9355 30.4688 15.9355C30.892 15.9355 31.2979 16.1036 31.5971 16.4029C31.8964 16.7021 32.0645 17.108 32.0645 17.5312C32.0645 17.9545 31.8964 18.3604 31.5971 18.6596L22.0346 28.2221C21.8866 28.3705 21.7107 28.4883 21.5171 28.5686C21.3235 28.649 21.1159 28.6903 20.9063 28.6903C20.6966 28.6903 20.4891 28.649 20.2954 28.5686C20.1018 28.4883 19.9259 28.3705 19.7779 28.2221L14.9966 23.4409C14.8485 23.2927 14.7309 23.1168 14.6507 22.9232C14.5705 22.7296 14.5293 22.5221 14.5293 22.3125C14.5293 22.1029 14.5705 21.8954 14.6507 21.7018C14.7309 21.5082 14.8485 21.3323 14.9966 21.1841C15.1448 21.0359 15.3207 20.9184 15.5143 20.8382C15.708 20.758 15.9155 20.7167 16.125 20.7167C16.3346 20.7167 16.5421 20.758 16.7357 20.8382C16.9293 20.9184 17.1052 21.0359 17.2534 21.1841L20.9063 24.8402L29.3404 16.4029Z" fill="#879EBB"/>
</svg>
