<svg width="13" height="15" viewBox="0 0 13 15" fill="none" xmlns="http://www.w3.org/2000/svg">
<path d="M6.5 0C4.77672 0.00196598 3.1246 0.66484 1.90606 1.84321C0.687511 3.02159 0.00203992 4.61924 6.91533e-06 6.28571C-0.00205706 7.64756 0.45795 8.97245 1.30946 10.0571C1.30946 10.0571 1.48673 10.2829 1.51569 10.3154L4.99618 14.2849C5.79285 15.1935 7.20713 15.1935 8.0038 14.2849L11.4867 10.3126C11.5127 10.2823 11.6905 10.0571 11.6905 10.0571L11.6911 10.0554C12.5422 8.97121 13.002 7.64693 13 6.28571C12.998 4.61924 12.3125 3.02159 11.0939 1.84321C9.8754 0.66484 8.22328 0.00196598 6.5 0ZM6.5 3.42857C6.85061 3.42857 7.19335 3.52911 7.48487 3.71748C7.7764 3.90585 8.00361 4.17358 8.13778 4.48683C8.27196 4.80007 8.30706 5.14476 8.23866 5.4773C8.17026 5.80984 8.00143 6.11529 7.75351 6.35504C7.50559 6.59479 7.18972 6.75806 6.84584 6.8242C6.50197 6.89035 6.14553 6.8564 5.82161 6.72665C5.49768 6.5969 5.22082 6.37718 5.02603 6.09526C4.83124 5.81335 4.72727 5.48191 4.72727 5.14286C4.72774 4.68834 4.91466 4.25257 5.24701 3.93118C5.57936 3.60978 6.02999 3.42903 6.5 3.42857ZM8.86363 9.71429H7.68182V8.57143H5.31818V9.71429H4.13637V8.57143C4.13668 8.26842 4.26129 7.9779 4.48286 7.76364C4.70442 7.54938 5.00484 7.42887 5.31818 7.42857H7.68182C7.99516 7.42887 8.29558 7.54938 8.51714 7.76364C8.73871 7.9779 8.86332 8.26842 8.86363 8.57143V9.71429Z" fill="#F7F7F7"/>
</svg>
