<svg width="17" height="18" viewBox="0 0 17 18" fill="none" xmlns="http://www.w3.org/2000/svg">
<path d="M14.8451 14.604C14.5153 14.2721 14.4733 13.7595 14.6376 13.3215C14.8015 12.8847 14.8901 12.41 14.8901 11.9176C14.8901 9.71064 13.1246 7.94507 10.9176 7.94507C8.71064 7.94507 6.94507 9.71064 6.94507 11.9176C6.94507 14.1246 8.71064 15.8901 10.9176 15.8901C11.4067 15.8901 11.878 15.8006 12.3131 15.6376C12.7458 15.4754 13.2508 15.5183 13.5802 15.8424L15.156 17.3929C15.4975 17.729 16.0462 17.7268 16.385 17.388C16.725 17.048 16.7259 16.497 16.387 16.1559L14.8451 14.604ZM10.9176 14.1246C10.3323 14.1246 9.77093 13.8921 9.35705 13.4782C8.94316 13.0643 8.71064 12.5029 8.71064 11.9176C8.71064 11.3323 8.94316 10.7709 9.35705 10.357C9.77093 9.94316 10.3323 9.71064 10.9176 9.71064C11.5029 9.71064 12.0643 9.94316 12.4782 10.357C12.8921 10.7709 13.1246 11.3323 13.1246 11.9176C13.1246 12.5029 12.8921 13.0643 12.4782 13.4782C12.0643 13.8921 11.5029 14.1246 10.9176 14.1246ZM2.64836 15.0074C2.09607 15.0074 1.64836 14.5596 1.64836 14.0074V8.67951C1.64836 8.27389 1.31954 7.94507 0.913918 7.94507C0.240816 7.94507 -0.0777084 7.11501 0.422604 6.66473L7.15889 0.602068C7.5392 0.259793 8.11652 0.259794 8.49682 0.602068L15.6294 7.02141C15.9904 7.34625 15.7606 7.94507 15.275 7.94507C15.1306 7.94507 14.9934 7.8853 14.8895 7.78513C13.8603 6.79291 12.4606 6.1795 10.9176 6.1795C7.75724 6.1795 5.1795 8.75724 5.1795 11.9176C5.1795 12.4029 5.24042 12.8754 5.35475 13.3262C5.54982 14.0953 5.03952 15.0074 4.24608 15.0074H2.64836Z" fill="#F7F7F7" fill-opacity="0.8"/>
</svg>
