<svg width="16" height="13" viewBox="0 0 16 13" fill="none" xmlns="http://www.w3.org/2000/svg">
<path fill-rule="evenodd" clip-rule="evenodd" d="M13.4229 0.423761C13.6957 0.153287 14.0641 0.00106556 14.4483 5.573e-06C14.8325 -0.00105442 15.2016 0.149132 15.476 0.418096C15.7503 0.68706 15.9078 1.05319 15.9143 1.43733C15.9209 1.82147 15.776 2.19275 15.511 2.47091L7.7279 12.1997C7.59414 12.3438 7.4327 12.4594 7.25322 12.5397C7.07375 12.62 6.87994 12.6632 6.68337 12.6668C6.48681 12.6705 6.29153 12.6344 6.10921 12.5609C5.92689 12.4873 5.76127 12.3778 5.62227 12.2387L0.465401 7.07992C0.321737 6.94605 0.206507 6.78462 0.126587 6.60525C0.0466662 6.42588 0.0036917 6.23225 0.000227565 6.03592C-0.00323657 5.83958 0.0328807 5.64456 0.106424 5.46248C0.179967 5.28041 0.289431 5.11501 0.428283 4.97615C0.567136 4.8373 0.732534 4.72784 0.914609 4.6543C1.09668 4.58075 1.29171 4.54463 1.48805 4.5481C1.68438 4.55156 1.87801 4.59454 2.05738 4.67446C2.23675 4.75438 2.39818 4.86961 2.53205 5.01327L6.61465 9.09392L13.3858 0.466654C13.3979 0.451551 13.4109 0.437224 13.4248 0.423761H13.4229Z" fill="#F7F7F7"/>
</svg>
