<svg width="420" height="49" viewBox="0 0 420 49" fill="none" xmlns="http://www.w3.org/2000/svg">
<mask id="path-1-outside-1" maskUnits="userSpaceOnUse" x="61.5703" y="2.16016" width="358" height="46" fill="black">
<rect fill="white" x="61.5703" y="2.16016" width="358" height="46"/>
<path d="M67.5478 43.8155C66.7469 43.8155 66.0504 43.5195 65.4583 42.9275C64.8663 42.3355 64.5703 41.639 64.5703 40.838V8.66003C64.5703 7.85907 64.8663 7.16257 65.4583 6.57055C66.0504 5.97854 66.7469 5.68253 67.5478 5.68253H69.6373C70.4383 5.68253 71.1348 5.97854 71.7268 6.57055C72.3188 7.16257 72.6148 7.85907 72.6148 8.66003V40.838C72.6148 41.639 72.3188 42.3355 71.7268 42.9275C71.1348 43.5195 70.4383 43.8155 69.6373 43.8155H67.5478Z"/>
<path d="M88.472 43.8155C87.671 43.8155 86.9745 43.5195 86.3825 42.9275C85.8253 42.3355 85.5467 41.639 85.5467 40.838V8.66003C85.5467 7.85907 85.8253 7.16257 86.3825 6.57055C86.9745 5.97854 87.671 5.68253 88.472 5.68253H89.6212C91.6062 5.68253 93.0689 6.55314 94.0091 8.29438L106.912 31.5921C106.912 31.6269 106.929 31.6443 106.964 31.6443C106.999 31.6443 107.016 31.6269 107.016 31.5921V8.66003C107.016 7.85907 107.312 7.16257 107.904 6.57055C108.496 5.97854 109.193 5.68253 109.994 5.68253H111.143C111.944 5.68253 112.623 5.97854 113.18 6.57055C113.772 7.16257 114.068 7.85907 114.068 8.66003V40.838C114.068 41.639 113.772 42.3355 113.18 42.9275C112.623 43.5195 111.944 43.8155 111.143 43.8155H109.994C108.009 43.8155 106.546 42.9449 105.606 41.2037L92.7032 17.906C92.7032 17.8712 92.6858 17.8537 92.651 17.8537C92.6161 17.8537 92.5987 17.8712 92.5987 17.906V40.838C92.5987 41.639 92.3027 42.3355 91.7107 42.9275C91.1187 43.5195 90.4222 43.8155 89.6212 43.8155H88.472Z"/>
<path d="M136.535 27.7265C132.356 26.3336 129.327 24.6446 127.446 22.6595C125.6 20.6745 124.678 18.2716 124.678 15.4508C124.678 12.2818 125.74 9.77442 127.864 7.92872C129.988 6.08301 132.966 5.16016 136.797 5.16016C140.035 5.16016 142.856 5.52581 145.259 6.25713C146.095 6.50091 146.756 7.00586 147.244 7.772C147.766 8.50332 148.027 9.3217 148.027 10.2271V10.6973C148.027 11.3589 147.731 11.8813 147.139 12.2644C146.547 12.6126 145.938 12.6649 145.311 12.4211C142.699 11.4112 140.035 10.9062 137.319 10.9062C135.578 10.9062 134.254 11.3067 133.349 12.1077C132.443 12.9086 131.991 14.023 131.991 15.4508C131.991 17.9582 133.627 19.7517 136.901 20.8313C141.602 22.3287 144.858 24.0351 146.669 25.9505C148.515 27.8658 149.438 30.3384 149.438 33.3681C149.438 40.6813 144.928 44.3379 135.908 44.3379C133.088 44.3379 130.528 43.9026 128.23 43.032C127.394 42.7186 126.732 42.1788 126.245 41.4126C125.792 40.6465 125.566 39.7933 125.566 38.853V38.2262C125.566 37.5645 125.844 37.0944 126.401 36.8158C126.959 36.5024 127.533 36.4849 128.125 36.7635C130.424 37.9128 132.844 38.4874 135.386 38.4874C139.809 38.4874 142.02 36.8158 142.02 33.4726C142.02 32.1144 141.602 31.0001 140.767 30.1294C139.931 29.224 138.52 28.423 136.535 27.7265Z"/>
<path d="M160.695 11.742C159.894 11.742 159.197 11.4634 158.605 10.9062C158.013 10.3142 157.717 9.61771 157.717 8.81675V8.66003C157.717 7.85907 158.013 7.16257 158.605 6.57055C159.197 5.97854 159.894 5.68253 160.695 5.68253H182.948C183.749 5.68253 184.445 5.97854 185.037 6.57055C185.629 7.16257 185.925 7.85907 185.925 8.66003V8.81675C185.925 9.61771 185.629 10.3142 185.037 10.9062C184.445 11.4634 183.749 11.742 182.948 11.742H175.948C175.67 11.742 175.53 11.8987 175.53 12.2122V40.838C175.53 41.639 175.234 42.3355 174.642 42.9275C174.05 43.5195 173.354 43.8155 172.553 43.8155H171.09C170.289 43.8155 169.593 43.5195 169.001 42.9275C168.409 42.3355 168.113 41.639 168.113 40.838V12.2122C168.113 11.8987 167.973 11.742 167.695 11.742H160.695Z"/>
<path d="M203.899 12.1599L199.303 28.5623C199.268 28.6668 199.285 28.7713 199.355 28.8758C199.424 28.9802 199.512 29.0325 199.616 29.0325H208.287C208.392 29.0325 208.479 28.9802 208.549 28.8758C208.618 28.7713 208.636 28.6668 208.601 28.5623L204.004 12.1599C204.004 12.1251 203.986 12.1077 203.952 12.1077C203.917 12.1077 203.899 12.1251 203.899 12.1599ZM190.37 43.8155C189.639 43.8155 189.064 43.5195 188.646 42.9275C188.228 42.3355 188.141 41.6912 188.385 40.9947L199.198 8.50332C199.512 7.66753 200.016 6.98845 200.713 6.46608C201.444 5.94371 202.245 5.68253 203.116 5.68253H204.996C205.902 5.68253 206.703 5.94371 207.399 6.46608C208.131 6.98845 208.636 7.66753 208.914 8.50332L219.727 40.9947C219.971 41.6912 219.884 42.3355 219.466 42.9275C219.048 43.5195 218.474 43.8155 217.742 43.8155H215.862C215.026 43.8155 214.242 43.5543 213.511 43.032C212.815 42.4748 212.344 41.7783 212.101 40.9425L210.429 35.0397C210.394 34.7611 210.203 34.6218 209.854 34.6218H198.049C197.735 34.6218 197.544 34.7611 197.474 35.0397L195.803 40.9425C195.594 41.7783 195.124 42.4748 194.392 43.032C193.696 43.5543 192.912 43.8155 192.042 43.8155H190.37Z"/>
<path d="M231.497 43.8155C230.696 43.8155 230 43.5195 229.408 42.9275C228.851 42.3355 228.572 41.639 228.572 40.838V8.66003C228.572 7.85907 228.851 7.16257 229.408 6.57055C230 5.97854 230.696 5.68253 231.497 5.68253H232.908C233.709 5.68253 234.405 5.97854 234.997 6.57055C235.589 7.16257 235.885 7.85907 235.885 8.66003V20.5178C235.885 20.7964 236.024 20.9357 236.303 20.9357H249.362C249.641 20.9357 249.78 20.7964 249.78 20.5178V8.66003C249.78 7.85907 250.076 7.16257 250.668 6.57055C251.26 5.97854 251.957 5.68253 252.758 5.68253H254.168C254.969 5.68253 255.648 5.97854 256.205 6.57055C256.797 7.16257 257.093 7.85907 257.093 8.66003V40.838C257.093 41.639 256.797 42.3355 256.205 42.9275C255.648 43.5195 254.969 43.8155 254.168 43.8155H252.758C251.957 43.8155 251.26 43.5195 250.668 42.9275C250.076 42.3355 249.78 41.639 249.78 40.838V26.9952C249.78 26.6818 249.641 26.5251 249.362 26.5251H236.303C236.024 26.5251 235.885 26.6818 235.885 26.9952V40.838C235.885 41.639 235.589 42.3355 234.997 42.9275C234.405 43.5195 233.709 43.8155 232.908 43.8155H231.497Z"/>
<path d="M293.978 24.749C293.978 15.6946 290.67 11.1674 284.053 11.1674C277.436 11.1674 274.128 15.6946 274.128 24.749C274.128 33.8034 277.436 38.3306 284.053 38.3306C290.67 38.3306 293.978 33.8034 293.978 24.749ZM296.747 39.1664C293.647 42.6141 289.416 44.3379 284.053 44.3379C278.69 44.3379 274.441 42.6141 271.307 39.1664C268.208 35.7188 266.658 30.913 266.658 24.749C266.658 18.5851 268.208 13.7793 271.307 10.3316C274.441 6.88398 278.69 5.16016 284.053 5.16016C289.416 5.16016 293.647 6.88398 296.747 10.3316C299.881 13.7793 301.448 18.5851 301.448 24.749C301.448 30.913 299.881 35.7188 296.747 39.1664Z"/>
<path d="M314.004 43.8155C313.203 43.8155 312.507 43.5195 311.915 42.9275C311.323 42.3355 311.027 41.639 311.027 40.838V8.66003C311.027 7.85907 311.323 7.16257 311.915 6.57055C312.507 5.97854 313.203 5.68253 314.004 5.68253H315.31C316.216 5.68253 317.052 5.9263 317.818 6.41384C318.584 6.90139 319.141 7.54564 319.489 8.34661L328.631 28.0922C328.631 28.127 328.648 28.1444 328.683 28.1444C328.718 28.1444 328.735 28.127 328.735 28.0922L337.877 8.34661C338.225 7.54564 338.782 6.90139 339.548 6.41384C340.314 5.9263 341.15 5.68253 342.056 5.68253H343.571C344.371 5.68253 345.068 5.97854 345.66 6.57055C346.252 7.16257 346.548 7.85907 346.548 8.66003V40.838C346.548 41.639 346.252 42.3355 345.66 42.9275C345.068 43.5195 344.371 43.8155 343.571 43.8155H342.421C341.62 43.8155 340.924 43.5195 340.332 42.9275C339.74 42.3355 339.444 41.639 339.444 40.838V18.1149C339.444 18.0801 339.426 18.0627 339.392 18.0627C339.357 18.0627 339.339 18.0801 339.339 18.1149L333.071 31.5398C332.688 32.3408 332.096 33.0025 331.295 33.5248C330.529 34.0124 329.71 34.2562 328.84 34.2562H328.526C327.656 34.2562 326.82 34.0124 326.019 33.5248C325.253 33.0025 324.678 32.3408 324.295 31.5398L318.027 18.1149C318.027 18.0801 318.009 18.0627 317.974 18.0627C317.94 18.0627 317.922 18.0801 317.922 18.1149V40.838C317.922 41.639 317.626 42.3355 317.034 42.9275C316.442 43.5195 315.746 43.8155 314.945 43.8155H314.004Z"/>
<path d="M361.43 43.8155C360.629 43.8155 359.932 43.5195 359.34 42.9275C358.748 42.3355 358.452 41.639 358.452 40.838V8.66003C358.452 7.85907 358.748 7.16257 359.34 6.57055C359.932 5.97854 360.629 5.68253 361.43 5.68253H379.19C379.991 5.68253 380.688 5.97854 381.28 6.57055C381.872 7.16257 382.168 7.85907 382.168 8.66003C382.168 9.461 381.872 10.1575 381.28 10.7495C380.688 11.3067 379.991 11.5853 379.19 11.5853H366.236C365.922 11.5853 365.766 11.742 365.766 12.0554V20.4656C365.766 20.779 365.922 20.9357 366.236 20.9357H378.302C379.103 20.9357 379.765 21.2143 380.287 21.7715C380.845 22.3287 381.123 22.9904 381.123 23.7565C381.123 24.5227 380.845 25.1843 380.287 25.7415C379.765 26.2639 379.103 26.5251 378.302 26.5251H366.236C365.922 26.5251 365.766 26.6818 365.766 26.9952V37.4426C365.766 37.756 365.922 37.9128 366.236 37.9128H379.19C379.991 37.9128 380.688 38.2088 381.28 38.8008C381.872 39.358 382.168 40.0371 382.168 40.838C382.168 41.639 381.872 42.3355 381.28 42.9275C380.688 43.5195 379.991 43.8155 379.19 43.8155H361.43Z"/>
<path d="M403.574 27.7265C399.396 26.3336 396.366 24.6446 394.485 22.6595C392.64 20.6745 391.717 18.2716 391.717 15.4508C391.717 12.2818 392.779 9.77442 394.903 7.92872C397.027 6.08301 400.005 5.16016 403.836 5.16016C407.074 5.16016 409.895 5.52581 412.298 6.25713C413.134 6.50091 413.796 7.00586 414.283 7.772C414.805 8.50332 415.067 9.3217 415.067 10.2271V10.6973C415.067 11.3589 414.771 11.8813 414.179 12.2644C413.587 12.6126 412.977 12.6649 412.35 12.4211C409.738 11.4112 407.074 10.9062 404.358 10.9062C402.617 10.9062 401.293 11.3067 400.388 12.1077C399.483 12.9086 399.03 14.023 399.03 15.4508C399.03 17.9582 400.667 19.7517 403.94 20.8313C408.641 22.3287 411.898 24.0351 413.708 25.9505C415.554 27.8658 416.477 30.3384 416.477 33.3681C416.477 40.6813 411.967 44.3379 402.948 44.3379C400.127 44.3379 397.567 43.9026 395.269 43.032C394.433 42.7186 393.771 42.1788 393.284 41.4126C392.831 40.6465 392.605 39.7933 392.605 38.853V38.2262C392.605 37.5645 392.883 37.0944 393.441 36.8158C393.998 36.5024 394.572 36.4849 395.164 36.7635C397.463 37.9128 399.883 38.4874 402.425 38.4874C406.848 38.4874 409.059 36.8158 409.059 33.4726C409.059 32.1144 408.641 31.0001 407.806 30.1294C406.97 29.224 405.559 28.423 403.574 27.7265Z"/>
</mask>
<path d="M67.5478 43.8155C66.7469 43.8155 66.0504 43.5195 65.4583 42.9275C64.8663 42.3355 64.5703 41.639 64.5703 40.838V8.66003C64.5703 7.85907 64.8663 7.16257 65.4583 6.57055C66.0504 5.97854 66.7469 5.68253 67.5478 5.68253H69.6373C70.4383 5.68253 71.1348 5.97854 71.7268 6.57055C72.3188 7.16257 72.6148 7.85907 72.6148 8.66003V40.838C72.6148 41.639 72.3188 42.3355 71.7268 42.9275C71.1348 43.5195 70.4383 43.8155 69.6373 43.8155H67.5478Z" fill="#FF6700"/>
<path d="M88.472 43.8155C87.671 43.8155 86.9745 43.5195 86.3825 42.9275C85.8253 42.3355 85.5467 41.639 85.5467 40.838V8.66003C85.5467 7.85907 85.8253 7.16257 86.3825 6.57055C86.9745 5.97854 87.671 5.68253 88.472 5.68253H89.6212C91.6062 5.68253 93.0689 6.55314 94.0091 8.29438L106.912 31.5921C106.912 31.6269 106.929 31.6443 106.964 31.6443C106.999 31.6443 107.016 31.6269 107.016 31.5921V8.66003C107.016 7.85907 107.312 7.16257 107.904 6.57055C108.496 5.97854 109.193 5.68253 109.994 5.68253H111.143C111.944 5.68253 112.623 5.97854 113.18 6.57055C113.772 7.16257 114.068 7.85907 114.068 8.66003V40.838C114.068 41.639 113.772 42.3355 113.18 42.9275C112.623 43.5195 111.944 43.8155 111.143 43.8155H109.994C108.009 43.8155 106.546 42.9449 105.606 41.2037L92.7032 17.906C92.7032 17.8712 92.6858 17.8537 92.651 17.8537C92.6161 17.8537 92.5987 17.8712 92.5987 17.906V40.838C92.5987 41.639 92.3027 42.3355 91.7107 42.9275C91.1187 43.5195 90.4222 43.8155 89.6212 43.8155H88.472Z" fill="#FF6700"/>
<path d="M136.535 27.7265C132.356 26.3336 129.327 24.6446 127.446 22.6595C125.6 20.6745 124.678 18.2716 124.678 15.4508C124.678 12.2818 125.74 9.77442 127.864 7.92872C129.988 6.08301 132.966 5.16016 136.797 5.16016C140.035 5.16016 142.856 5.52581 145.259 6.25713C146.095 6.50091 146.756 7.00586 147.244 7.772C147.766 8.50332 148.027 9.3217 148.027 10.2271V10.6973C148.027 11.3589 147.731 11.8813 147.139 12.2644C146.547 12.6126 145.938 12.6649 145.311 12.4211C142.699 11.4112 140.035 10.9062 137.319 10.9062C135.578 10.9062 134.254 11.3067 133.349 12.1077C132.443 12.9086 131.991 14.023 131.991 15.4508C131.991 17.9582 133.627 19.7517 136.901 20.8313C141.602 22.3287 144.858 24.0351 146.669 25.9505C148.515 27.8658 149.438 30.3384 149.438 33.3681C149.438 40.6813 144.928 44.3379 135.908 44.3379C133.088 44.3379 130.528 43.9026 128.23 43.032C127.394 42.7186 126.732 42.1788 126.245 41.4126C125.792 40.6465 125.566 39.7933 125.566 38.853V38.2262C125.566 37.5645 125.844 37.0944 126.401 36.8158C126.959 36.5024 127.533 36.4849 128.125 36.7635C130.424 37.9128 132.844 38.4874 135.386 38.4874C139.809 38.4874 142.02 36.8158 142.02 33.4726C142.02 32.1144 141.602 31.0001 140.767 30.1294C139.931 29.224 138.52 28.423 136.535 27.7265Z" fill="#FF6700"/>
<path d="M160.695 11.742C159.894 11.742 159.197 11.4634 158.605 10.9062C158.013 10.3142 157.717 9.61771 157.717 8.81675V8.66003C157.717 7.85907 158.013 7.16257 158.605 6.57055C159.197 5.97854 159.894 5.68253 160.695 5.68253H182.948C183.749 5.68253 184.445 5.97854 185.037 6.57055C185.629 7.16257 185.925 7.85907 185.925 8.66003V8.81675C185.925 9.61771 185.629 10.3142 185.037 10.9062C184.445 11.4634 183.749 11.742 182.948 11.742H175.948C175.67 11.742 175.53 11.8987 175.53 12.2122V40.838C175.53 41.639 175.234 42.3355 174.642 42.9275C174.05 43.5195 173.354 43.8155 172.553 43.8155H171.09C170.289 43.8155 169.593 43.5195 169.001 42.9275C168.409 42.3355 168.113 41.639 168.113 40.838V12.2122C168.113 11.8987 167.973 11.742 167.695 11.742H160.695Z" fill="#FF6700"/>
<path d="M203.899 12.1599L199.303 28.5623C199.268 28.6668 199.285 28.7713 199.355 28.8758C199.424 28.9802 199.512 29.0325 199.616 29.0325H208.287C208.392 29.0325 208.479 28.9802 208.549 28.8758C208.618 28.7713 208.636 28.6668 208.601 28.5623L204.004 12.1599C204.004 12.1251 203.986 12.1077 203.952 12.1077C203.917 12.1077 203.899 12.1251 203.899 12.1599ZM190.37 43.8155C189.639 43.8155 189.064 43.5195 188.646 42.9275C188.228 42.3355 188.141 41.6912 188.385 40.9947L199.198 8.50332C199.512 7.66753 200.016 6.98845 200.713 6.46608C201.444 5.94371 202.245 5.68253 203.116 5.68253H204.996C205.902 5.68253 206.703 5.94371 207.399 6.46608C208.131 6.98845 208.636 7.66753 208.914 8.50332L219.727 40.9947C219.971 41.6912 219.884 42.3355 219.466 42.9275C219.048 43.5195 218.474 43.8155 217.742 43.8155H215.862C215.026 43.8155 214.242 43.5543 213.511 43.032C212.815 42.4748 212.344 41.7783 212.101 40.9425L210.429 35.0397C210.394 34.7611 210.203 34.6218 209.854 34.6218H198.049C197.735 34.6218 197.544 34.7611 197.474 35.0397L195.803 40.9425C195.594 41.7783 195.124 42.4748 194.392 43.032C193.696 43.5543 192.912 43.8155 192.042 43.8155H190.37Z" fill="#FF6700"/>
<path d="M231.497 43.8155C230.696 43.8155 230 43.5195 229.408 42.9275C228.851 42.3355 228.572 41.639 228.572 40.838V8.66003C228.572 7.85907 228.851 7.16257 229.408 6.57055C230 5.97854 230.696 5.68253 231.497 5.68253H232.908C233.709 5.68253 234.405 5.97854 234.997 6.57055C235.589 7.16257 235.885 7.85907 235.885 8.66003V20.5178C235.885 20.7964 236.024 20.9357 236.303 20.9357H249.362C249.641 20.9357 249.78 20.7964 249.78 20.5178V8.66003C249.78 7.85907 250.076 7.16257 250.668 6.57055C251.26 5.97854 251.957 5.68253 252.758 5.68253H254.168C254.969 5.68253 255.648 5.97854 256.205 6.57055C256.797 7.16257 257.093 7.85907 257.093 8.66003V40.838C257.093 41.639 256.797 42.3355 256.205 42.9275C255.648 43.5195 254.969 43.8155 254.168 43.8155H252.758C251.957 43.8155 251.26 43.5195 250.668 42.9275C250.076 42.3355 249.78 41.639 249.78 40.838V26.9952C249.78 26.6818 249.641 26.5251 249.362 26.5251H236.303C236.024 26.5251 235.885 26.6818 235.885 26.9952V40.838C235.885 41.639 235.589 42.3355 234.997 42.9275C234.405 43.5195 233.709 43.8155 232.908 43.8155H231.497Z" fill="#FF6700"/>
<path d="M293.978 24.749C293.978 15.6946 290.67 11.1674 284.053 11.1674C277.436 11.1674 274.128 15.6946 274.128 24.749C274.128 33.8034 277.436 38.3306 284.053 38.3306C290.67 38.3306 293.978 33.8034 293.978 24.749ZM296.747 39.1664C293.647 42.6141 289.416 44.3379 284.053 44.3379C278.69 44.3379 274.441 42.6141 271.307 39.1664C268.208 35.7188 266.658 30.913 266.658 24.749C266.658 18.5851 268.208 13.7793 271.307 10.3316C274.441 6.88398 278.69 5.16016 284.053 5.16016C289.416 5.16016 293.647 6.88398 296.747 10.3316C299.881 13.7793 301.448 18.5851 301.448 24.749C301.448 30.913 299.881 35.7188 296.747 39.1664Z" fill="#FF6700"/>
<path d="M314.004 43.8155C313.203 43.8155 312.507 43.5195 311.915 42.9275C311.323 42.3355 311.027 41.639 311.027 40.838V8.66003C311.027 7.85907 311.323 7.16257 311.915 6.57055C312.507 5.97854 313.203 5.68253 314.004 5.68253H315.31C316.216 5.68253 317.052 5.9263 317.818 6.41384C318.584 6.90139 319.141 7.54564 319.489 8.34661L328.631 28.0922C328.631 28.127 328.648 28.1444 328.683 28.1444C328.718 28.1444 328.735 28.127 328.735 28.0922L337.877 8.34661C338.225 7.54564 338.782 6.90139 339.548 6.41384C340.314 5.9263 341.15 5.68253 342.056 5.68253H343.571C344.371 5.68253 345.068 5.97854 345.66 6.57055C346.252 7.16257 346.548 7.85907 346.548 8.66003V40.838C346.548 41.639 346.252 42.3355 345.66 42.9275C345.068 43.5195 344.371 43.8155 343.571 43.8155H342.421C341.62 43.8155 340.924 43.5195 340.332 42.9275C339.74 42.3355 339.444 41.639 339.444 40.838V18.1149C339.444 18.0801 339.426 18.0627 339.392 18.0627C339.357 18.0627 339.339 18.0801 339.339 18.1149L333.071 31.5398C332.688 32.3408 332.096 33.0025 331.295 33.5248C330.529 34.0124 329.71 34.2562 328.84 34.2562H328.526C327.656 34.2562 326.82 34.0124 326.019 33.5248C325.253 33.0025 324.678 32.3408 324.295 31.5398L318.027 18.1149C318.027 18.0801 318.009 18.0627 317.974 18.0627C317.94 18.0627 317.922 18.0801 317.922 18.1149V40.838C317.922 41.639 317.626 42.3355 317.034 42.9275C316.442 43.5195 315.746 43.8155 314.945 43.8155H314.004Z" fill="#FF6700"/>
<path d="M361.43 43.8155C360.629 43.8155 359.932 43.5195 359.34 42.9275C358.748 42.3355 358.452 41.639 358.452 40.838V8.66003C358.452 7.85907 358.748 7.16257 359.34 6.57055C359.932 5.97854 360.629 5.68253 361.43 5.68253H379.19C379.991 5.68253 380.688 5.97854 381.28 6.57055C381.872 7.16257 382.168 7.85907 382.168 8.66003C382.168 9.461 381.872 10.1575 381.28 10.7495C380.688 11.3067 379.991 11.5853 379.19 11.5853H366.236C365.922 11.5853 365.766 11.742 365.766 12.0554V20.4656C365.766 20.779 365.922 20.9357 366.236 20.9357H378.302C379.103 20.9357 379.765 21.2143 380.287 21.7715C380.845 22.3287 381.123 22.9904 381.123 23.7565C381.123 24.5227 380.845 25.1843 380.287 25.7415C379.765 26.2639 379.103 26.5251 378.302 26.5251H366.236C365.922 26.5251 365.766 26.6818 365.766 26.9952V37.4426C365.766 37.756 365.922 37.9128 366.236 37.9128H379.19C379.991 37.9128 380.688 38.2088 381.28 38.8008C381.872 39.358 382.168 40.0371 382.168 40.838C382.168 41.639 381.872 42.3355 381.28 42.9275C380.688 43.5195 379.991 43.8155 379.19 43.8155H361.43Z" fill="#FF6700"/>
<path d="M403.574 27.7265C399.396 26.3336 396.366 24.6446 394.485 22.6595C392.64 20.6745 391.717 18.2716 391.717 15.4508C391.717 12.2818 392.779 9.77442 394.903 7.92872C397.027 6.08301 400.005 5.16016 403.836 5.16016C407.074 5.16016 409.895 5.52581 412.298 6.25713C413.134 6.50091 413.796 7.00586 414.283 7.772C414.805 8.50332 415.067 9.3217 415.067 10.2271V10.6973C415.067 11.3589 414.771 11.8813 414.179 12.2644C413.587 12.6126 412.977 12.6649 412.35 12.4211C409.738 11.4112 407.074 10.9062 404.358 10.9062C402.617 10.9062 401.293 11.3067 400.388 12.1077C399.483 12.9086 399.03 14.023 399.03 15.4508C399.03 17.9582 400.667 19.7517 403.94 20.8313C408.641 22.3287 411.898 24.0351 413.708 25.9505C415.554 27.8658 416.477 30.3384 416.477 33.3681C416.477 40.6813 411.967 44.3379 402.948 44.3379C400.127 44.3379 397.567 43.9026 395.269 43.032C394.433 42.7186 393.771 42.1788 393.284 41.4126C392.831 40.6465 392.605 39.7933 392.605 38.853V38.2262C392.605 37.5645 392.883 37.0944 393.441 36.8158C393.998 36.5024 394.572 36.4849 395.164 36.7635C397.463 37.9128 399.883 38.4874 402.425 38.4874C406.848 38.4874 409.059 36.8158 409.059 33.4726C409.059 32.1144 408.641 31.0001 407.806 30.1294C406.97 29.224 405.559 28.423 403.574 27.7265Z" fill="#FF6700"/>
<path d="M67.5478 43.8155C66.7469 43.8155 66.0504 43.5195 65.4583 42.9275C64.8663 42.3355 64.5703 41.639 64.5703 40.838V8.66003C64.5703 7.85907 64.8663 7.16257 65.4583 6.57055C66.0504 5.97854 66.7469 5.68253 67.5478 5.68253H69.6373C70.4383 5.68253 71.1348 5.97854 71.7268 6.57055C72.3188 7.16257 72.6148 7.85907 72.6148 8.66003V40.838C72.6148 41.639 72.3188 42.3355 71.7268 42.9275C71.1348 43.5195 70.4383 43.8155 69.6373 43.8155H67.5478Z" stroke="#FDFDFD" stroke-width="6" mask="url(#path-1-outside-1)"/>
<path d="M88.472 43.8155C87.671 43.8155 86.9745 43.5195 86.3825 42.9275C85.8253 42.3355 85.5467 41.639 85.5467 40.838V8.66003C85.5467 7.85907 85.8253 7.16257 86.3825 6.57055C86.9745 5.97854 87.671 5.68253 88.472 5.68253H89.6212C91.6062 5.68253 93.0689 6.55314 94.0091 8.29438L106.912 31.5921C106.912 31.6269 106.929 31.6443 106.964 31.6443C106.999 31.6443 107.016 31.6269 107.016 31.5921V8.66003C107.016 7.85907 107.312 7.16257 107.904 6.57055C108.496 5.97854 109.193 5.68253 109.994 5.68253H111.143C111.944 5.68253 112.623 5.97854 113.18 6.57055C113.772 7.16257 114.068 7.85907 114.068 8.66003V40.838C114.068 41.639 113.772 42.3355 113.18 42.9275C112.623 43.5195 111.944 43.8155 111.143 43.8155H109.994C108.009 43.8155 106.546 42.9449 105.606 41.2037L92.7032 17.906C92.7032 17.8712 92.6858 17.8537 92.651 17.8537C92.6161 17.8537 92.5987 17.8712 92.5987 17.906V40.838C92.5987 41.639 92.3027 42.3355 91.7107 42.9275C91.1187 43.5195 90.4222 43.8155 89.6212 43.8155H88.472Z" stroke="#FDFDFD" stroke-width="6" mask="url(#path-1-outside-1)"/>
<path d="M136.535 27.7265C132.356 26.3336 129.327 24.6446 127.446 22.6595C125.6 20.6745 124.678 18.2716 124.678 15.4508C124.678 12.2818 125.74 9.77442 127.864 7.92872C129.988 6.08301 132.966 5.16016 136.797 5.16016C140.035 5.16016 142.856 5.52581 145.259 6.25713C146.095 6.50091 146.756 7.00586 147.244 7.772C147.766 8.50332 148.027 9.3217 148.027 10.2271V10.6973C148.027 11.3589 147.731 11.8813 147.139 12.2644C146.547 12.6126 145.938 12.6649 145.311 12.4211C142.699 11.4112 140.035 10.9062 137.319 10.9062C135.578 10.9062 134.254 11.3067 133.349 12.1077C132.443 12.9086 131.991 14.023 131.991 15.4508C131.991 17.9582 133.627 19.7517 136.901 20.8313C141.602 22.3287 144.858 24.0351 146.669 25.9505C148.515 27.8658 149.438 30.3384 149.438 33.3681C149.438 40.6813 144.928 44.3379 135.908 44.3379C133.088 44.3379 130.528 43.9026 128.23 43.032C127.394 42.7186 126.732 42.1788 126.245 41.4126C125.792 40.6465 125.566 39.7933 125.566 38.853V38.2262C125.566 37.5645 125.844 37.0944 126.401 36.8158C126.959 36.5024 127.533 36.4849 128.125 36.7635C130.424 37.9128 132.844 38.4874 135.386 38.4874C139.809 38.4874 142.02 36.8158 142.02 33.4726C142.02 32.1144 141.602 31.0001 140.767 30.1294C139.931 29.224 138.52 28.423 136.535 27.7265Z" stroke="#FDFDFD" stroke-width="6" mask="url(#path-1-outside-1)"/>
<path d="M160.695 11.742C159.894 11.742 159.197 11.4634 158.605 10.9062C158.013 10.3142 157.717 9.61771 157.717 8.81675V8.66003C157.717 7.85907 158.013 7.16257 158.605 6.57055C159.197 5.97854 159.894 5.68253 160.695 5.68253H182.948C183.749 5.68253 184.445 5.97854 185.037 6.57055C185.629 7.16257 185.925 7.85907 185.925 8.66003V8.81675C185.925 9.61771 185.629 10.3142 185.037 10.9062C184.445 11.4634 183.749 11.742 182.948 11.742H175.948C175.67 11.742 175.53 11.8987 175.53 12.2122V40.838C175.53 41.639 175.234 42.3355 174.642 42.9275C174.05 43.5195 173.354 43.8155 172.553 43.8155H171.09C170.289 43.8155 169.593 43.5195 169.001 42.9275C168.409 42.3355 168.113 41.639 168.113 40.838V12.2122C168.113 11.8987 167.973 11.742 167.695 11.742H160.695Z" stroke="#FDFDFD" stroke-width="6" mask="url(#path-1-outside-1)"/>
<path d="M203.899 12.1599L199.303 28.5623C199.268 28.6668 199.285 28.7713 199.355 28.8758C199.424 28.9802 199.512 29.0325 199.616 29.0325H208.287C208.392 29.0325 208.479 28.9802 208.549 28.8758C208.618 28.7713 208.636 28.6668 208.601 28.5623L204.004 12.1599C204.004 12.1251 203.986 12.1077 203.952 12.1077C203.917 12.1077 203.899 12.1251 203.899 12.1599ZM190.37 43.8155C189.639 43.8155 189.064 43.5195 188.646 42.9275C188.228 42.3355 188.141 41.6912 188.385 40.9947L199.198 8.50332C199.512 7.66753 200.016 6.98845 200.713 6.46608C201.444 5.94371 202.245 5.68253 203.116 5.68253H204.996C205.902 5.68253 206.703 5.94371 207.399 6.46608C208.131 6.98845 208.636 7.66753 208.914 8.50332L219.727 40.9947C219.971 41.6912 219.884 42.3355 219.466 42.9275C219.048 43.5195 218.474 43.8155 217.742 43.8155H215.862C215.026 43.8155 214.242 43.5543 213.511 43.032C212.815 42.4748 212.344 41.7783 212.101 40.9425L210.429 35.0397C210.394 34.7611 210.203 34.6218 209.854 34.6218H198.049C197.735 34.6218 197.544 34.7611 197.474 35.0397L195.803 40.9425C195.594 41.7783 195.124 42.4748 194.392 43.032C193.696 43.5543 192.912 43.8155 192.042 43.8155H190.37Z" stroke="#FDFDFD" stroke-width="6" mask="url(#path-1-outside-1)"/>
<path d="M231.497 43.8155C230.696 43.8155 230 43.5195 229.408 42.9275C228.851 42.3355 228.572 41.639 228.572 40.838V8.66003C228.572 7.85907 228.851 7.16257 229.408 6.57055C230 5.97854 230.696 5.68253 231.497 5.68253H232.908C233.709 5.68253 234.405 5.97854 234.997 6.57055C235.589 7.16257 235.885 7.85907 235.885 8.66003V20.5178C235.885 20.7964 236.024 20.9357 236.303 20.9357H249.362C249.641 20.9357 249.78 20.7964 249.78 20.5178V8.66003C249.78 7.85907 250.076 7.16257 250.668 6.57055C251.26 5.97854 251.957 5.68253 252.758 5.68253H254.168C254.969 5.68253 255.648 5.97854 256.205 6.57055C256.797 7.16257 257.093 7.85907 257.093 8.66003V40.838C257.093 41.639 256.797 42.3355 256.205 42.9275C255.648 43.5195 254.969 43.8155 254.168 43.8155H252.758C251.957 43.8155 251.26 43.5195 250.668 42.9275C250.076 42.3355 249.78 41.639 249.78 40.838V26.9952C249.78 26.6818 249.641 26.5251 249.362 26.5251H236.303C236.024 26.5251 235.885 26.6818 235.885 26.9952V40.838C235.885 41.639 235.589 42.3355 234.997 42.9275C234.405 43.5195 233.709 43.8155 232.908 43.8155H231.497Z" stroke="#FDFDFD" stroke-width="6" mask="url(#path-1-outside-1)"/>
<path d="M293.978 24.749C293.978 15.6946 290.67 11.1674 284.053 11.1674C277.436 11.1674 274.128 15.6946 274.128 24.749C274.128 33.8034 277.436 38.3306 284.053 38.3306C290.67 38.3306 293.978 33.8034 293.978 24.749ZM296.747 39.1664C293.647 42.6141 289.416 44.3379 284.053 44.3379C278.69 44.3379 274.441 42.6141 271.307 39.1664C268.208 35.7188 266.658 30.913 266.658 24.749C266.658 18.5851 268.208 13.7793 271.307 10.3316C274.441 6.88398 278.69 5.16016 284.053 5.16016C289.416 5.16016 293.647 6.88398 296.747 10.3316C299.881 13.7793 301.448 18.5851 301.448 24.749C301.448 30.913 299.881 35.7188 296.747 39.1664Z" stroke="#FDFDFD" stroke-width="6" mask="url(#path-1-outside-1)"/>
<path d="M314.004 43.8155C313.203 43.8155 312.507 43.5195 311.915 42.9275C311.323 42.3355 311.027 41.639 311.027 40.838V8.66003C311.027 7.85907 311.323 7.16257 311.915 6.57055C312.507 5.97854 313.203 5.68253 314.004 5.68253H315.31C316.216 5.68253 317.052 5.9263 317.818 6.41384C318.584 6.90139 319.141 7.54564 319.489 8.34661L328.631 28.0922C328.631 28.127 328.648 28.1444 328.683 28.1444C328.718 28.1444 328.735 28.127 328.735 28.0922L337.877 8.34661C338.225 7.54564 338.782 6.90139 339.548 6.41384C340.314 5.9263 341.15 5.68253 342.056 5.68253H343.571C344.371 5.68253 345.068 5.97854 345.66 6.57055C346.252 7.16257 346.548 7.85907 346.548 8.66003V40.838C346.548 41.639 346.252 42.3355 345.66 42.9275C345.068 43.5195 344.371 43.8155 343.571 43.8155H342.421C341.62 43.8155 340.924 43.5195 340.332 42.9275C339.74 42.3355 339.444 41.639 339.444 40.838V18.1149C339.444 18.0801 339.426 18.0627 339.392 18.0627C339.357 18.0627 339.339 18.0801 339.339 18.1149L333.071 31.5398C332.688 32.3408 332.096 33.0025 331.295 33.5248C330.529 34.0124 329.71 34.2562 328.84 34.2562H328.526C327.656 34.2562 326.82 34.0124 326.019 33.5248C325.253 33.0025 324.678 32.3408 324.295 31.5398L318.027 18.1149C318.027 18.0801 318.009 18.0627 317.974 18.0627C317.94 18.0627 317.922 18.0801 317.922 18.1149V40.838C317.922 41.639 317.626 42.3355 317.034 42.9275C316.442 43.5195 315.746 43.8155 314.945 43.8155H314.004Z" stroke="#FDFDFD" stroke-width="6" mask="url(#path-1-outside-1)"/>
<path d="M361.43 43.8155C360.629 43.8155 359.932 43.5195 359.34 42.9275C358.748 42.3355 358.452 41.639 358.452 40.838V8.66003C358.452 7.85907 358.748 7.16257 359.34 6.57055C359.932 5.97854 360.629 5.68253 361.43 5.68253H379.19C379.991 5.68253 380.688 5.97854 381.28 6.57055C381.872 7.16257 382.168 7.85907 382.168 8.66003C382.168 9.461 381.872 10.1575 381.28 10.7495C380.688 11.3067 379.991 11.5853 379.19 11.5853H366.236C365.922 11.5853 365.766 11.742 365.766 12.0554V20.4656C365.766 20.779 365.922 20.9357 366.236 20.9357H378.302C379.103 20.9357 379.765 21.2143 380.287 21.7715C380.845 22.3287 381.123 22.9904 381.123 23.7565C381.123 24.5227 380.845 25.1843 380.287 25.7415C379.765 26.2639 379.103 26.5251 378.302 26.5251H366.236C365.922 26.5251 365.766 26.6818 365.766 26.9952V37.4426C365.766 37.756 365.922 37.9128 366.236 37.9128H379.19C379.991 37.9128 380.688 38.2088 381.28 38.8008C381.872 39.358 382.168 40.0371 382.168 40.838C382.168 41.639 381.872 42.3355 381.28 42.9275C380.688 43.5195 379.991 43.8155 379.19 43.8155H361.43Z" stroke="#FDFDFD" stroke-width="6" mask="url(#path-1-outside-1)"/>
<path d="M403.574 27.7265C399.396 26.3336 396.366 24.6446 394.485 22.6595C392.64 20.6745 391.717 18.2716 391.717 15.4508C391.717 12.2818 392.779 9.77442 394.903 7.92872C397.027 6.08301 400.005 5.16016 403.836 5.16016C407.074 5.16016 409.895 5.52581 412.298 6.25713C413.134 6.50091 413.796 7.00586 414.283 7.772C414.805 8.50332 415.067 9.3217 415.067 10.2271V10.6973C415.067 11.3589 414.771 11.8813 414.179 12.2644C413.587 12.6126 412.977 12.6649 412.35 12.4211C409.738 11.4112 407.074 10.9062 404.358 10.9062C402.617 10.9062 401.293 11.3067 400.388 12.1077C399.483 12.9086 399.03 14.023 399.03 15.4508C399.03 17.9582 400.667 19.7517 403.94 20.8313C408.641 22.3287 411.898 24.0351 413.708 25.9505C415.554 27.8658 416.477 30.3384 416.477 33.3681C416.477 40.6813 411.967 44.3379 402.948 44.3379C400.127 44.3379 397.567 43.9026 395.269 43.032C394.433 42.7186 393.771 42.1788 393.284 41.4126C392.831 40.6465 392.605 39.7933 392.605 38.853V38.2262C392.605 37.5645 392.883 37.0944 393.441 36.8158C393.998 36.5024 394.572 36.4849 395.164 36.7635C397.463 37.9128 399.883 38.4874 402.425 38.4874C406.848 38.4874 409.059 36.8158 409.059 33.4726C409.059 32.1144 408.641 31.0001 407.806 30.1294C406.97 29.224 405.559 28.423 403.574 27.7265Z" stroke="#FDFDFD" stroke-width="6" mask="url(#path-1-outside-1)"/>
<path d="M42.3893 1.5H6.61068C3.78813 1.5 1.5 3.78813 1.5 6.61068V42.3893C1.5 45.2118 3.78813 47.5 6.61068 47.5H42.3893C45.2118 47.5 47.5 45.2118 47.5 42.3893V6.61068C47.5 3.78813 45.2118 1.5 42.3893 1.5Z" fill="#3F526A" stroke="#FCFCFC" stroke-width="3"/>
<path d="M23.8308 8.21277C24.2089 7.86723 24.7898 7.86723 25.1678 8.21277L43.8858 25.3214C44.5494 25.9279 44.1183 27.0296 43.2173 27.0296H5.78134C4.88041 27.0296 4.44927 25.9279 5.11284 25.3214L23.8308 8.21277Z" fill="#F6F6F6"/>
<path d="M10.2734 27.0298H39.0455V46.0004H10.2734V27.0298Z" fill="#F6F6F6"/>
<path d="M19.6523 29.2776C19.6523 28.7343 20.0917 28.2939 20.6336 28.2939H28.1564C28.6983 28.2939 29.1376 28.7343 29.1376 29.2776V45.0162C29.1376 45.5594 28.6983 45.9998 28.1564 45.9998H20.6336C20.0917 45.9998 19.6523 45.5594 19.6523 45.0162V29.2776Z" fill="#FF6700"/>
<path d="M29.3484 22.2343C29.3484 24.8827 27.1779 27.0296 24.5004 27.0296C21.8229 27.0296 19.6523 24.8827 19.6523 22.2343C19.6523 19.5859 21.8229 17.439 24.5004 17.439C27.1779 17.439 29.3484 19.5859 29.3484 22.2343Z" fill="#FF6700"/>
</svg>
