<svg width="14" height="14" viewBox="0 0 14 14" fill="none" xmlns="http://www.w3.org/2000/svg">
<path fill-rule="evenodd" clip-rule="evenodd" d="M2 0C0.895431 0 0 0.89543 0 2V12C0 13.1046 0.89543 14 2 14H12C13.1046 14 14 13.1046 14 12V2C14 0.895431 13.1046 0 12 0H2ZM3.8 4H10.2C10.64 4 11 4.3375 11 4.75V9.25C11 9.6625 10.64 10 10.2 10H3.8C3.36 10 3 9.6625 3 9.25L3.004 4.75C3.004 4.3375 3.36 4 3.8 4ZM7.212 7.25125L10.04 5.59375C10.0801 5.57264 10.1152 5.54412 10.1432 5.50992C10.1713 5.47572 10.1916 5.43654 10.203 5.39476C10.2144 5.35299 10.2166 5.30948 10.2095 5.26687C10.2025 5.22425 10.1863 5.18343 10.1619 5.14686C10.1375 5.1103 10.1055 5.07875 10.0677 5.05412C10.0299 5.0295 9.98725 5.01232 9.9422 5.00361C9.89715 4.99491 9.85069 4.99486 9.80562 5.00348C9.76055 5.0121 9.71782 5.0292 9.68 5.05375L7 6.625L4.32 5.05375C4.28219 5.0292 4.23945 5.0121 4.19438 5.00348C4.14931 4.99486 4.10285 4.99491 4.0578 5.00361C4.01275 5.01232 3.97005 5.0295 3.93229 5.05412C3.89453 5.07875 3.86249 5.1103 3.83811 5.14686C3.81373 5.18343 3.79752 5.22425 3.79046 5.26687C3.7834 5.30948 3.78564 5.35299 3.79703 5.39476C3.80842 5.43654 3.82874 5.47572 3.85676 5.50992C3.88477 5.54412 3.91989 5.57264 3.96 5.59375L6.788 7.25125C6.916 7.32625 7.084 7.32625 7.212 7.25125Z" fill="#DDEBFD"/>
</svg>
