<svg width="14" height="14" viewBox="0 0 14 14" fill="none" xmlns="http://www.w3.org/2000/svg">
<path d="M7.70492 9.95775C8.86339 9.95775 9.75956 9.57433 10.3934 8.80751C11.0273 8.04069 11.3443 7.14241 11.3443 6.11268C11.3443 4.9734 10.918 3.99296 10.0656 3.17136C9.21311 2.34977 8.19126 1.93897 7 1.93897C5.80874 1.93897 4.78688 2.34977 3.93443 3.17136C3.08197 3.99296 2.65574 4.9734 2.65574 6.11268C2.65574 6.85759 2.85246 7.54773 3.2459 8.1831C3.37705 8.4241 3.57377 8.5446 3.83607 8.5446C4.03279 8.5446 4.20219 8.4734 4.34426 8.33099C4.48634 8.18858 4.55738 8.02973 4.55738 7.85446C4.55738 7.74491 4.51366 7.62441 4.42623 7.49296C4.18579 7.05477 4.06557 6.59468 4.06557 6.11268C4.06557 5.34585 4.34973 4.69405 4.91803 4.15728C5.48634 3.6205 6.17486 3.35211 6.98361 3.35211C7.79235 3.35211 8.48634 3.6205 9.06557 4.15728C9.64481 4.69405 9.93443 5.34585 9.93443 6.11268C9.93443 6.76995 9.7541 7.33412 9.39344 7.80516C9.03279 8.27621 8.46994 8.51174 7.70492 8.51174C7.44262 8.51174 7.22404 8.41862 7.04918 8.23239C6.87432 8.04617 6.78688 7.8216 6.78688 7.55869C6.78688 7.3615 6.89071 7.0493 7.09836 6.62207C7.30601 6.19484 7.40984 5.80595 7.40984 5.4554C7.40984 4.84194 7.07104 4.53521 6.39344 4.53521C6.08743 4.53521 5.81967 4.66119 5.59016 4.91315C5.36066 5.1651 5.2459 5.56494 5.2459 6.11268C5.2459 6.28795 5.25683 6.46322 5.27869 6.6385C5.30055 6.81377 5.3224 6.94523 5.34426 7.03286L5.37705 7.13145L4.09836 11.0423L4.06557 11.1737V11.2723C4.06557 11.4914 4.13661 11.6776 4.27869 11.831C4.42076 11.9843 4.60109 12.061 4.81967 12.061C5.12568 12.061 5.34426 11.9296 5.47541 11.6667L5.5082 11.6995L5.54098 11.5681L6.19672 9.30047C6.61202 9.73865 7.11475 9.95775 7.70492 9.95775ZM12.5902 0C12.9836 0 13.3169 0.136933 13.5902 0.410798C13.8634 0.684663 14 1.00782 14 1.38028V12.6197C14 12.9922 13.8634 13.3153 13.5902 13.5892C13.3169 13.8631 12.9836 14 12.5902 14H1.40984C1.01639 14 0.68306 13.8631 0.409836 13.5892C0.136612 13.3153 0 12.9922 0 12.6197V1.38028C0 1.00782 0.136612 0.684663 0.409836 0.410798C0.68306 0.136933 1.01639 0 1.40984 0H12.5902Z" fill="#DDEBFD"/>
</svg>
