<svg width="15" height="14" viewBox="0 0 15 14" fill="none" xmlns="http://www.w3.org/2000/svg">
<path d="M14.7916 11.6415L12.6767 13.5995C12.3646 13.8983 11.9508 13.9995 11.5478 14C9.76565 13.9502 8.08113 13.1331 6.69803 12.2942C4.42775 10.7526 2.34468 8.84123 1.0373 6.53137C0.535877 5.56277 -0.0524727 4.32691 0.00373975 3.24577C0.00875225 2.83907 0.126177 2.43992 0.433065 2.17777L2.54789 0.204923C2.98704 -0.143712 3.41173 -0.0231717 3.69275 0.382922L5.39414 3.39411C5.57321 3.75084 5.47049 4.13307 5.20331 4.38797L4.42416 5.11481C4.37606 5.1763 4.34544 5.2463 4.34466 5.32248C4.64344 6.40191 5.54858 7.39681 6.34818 8.08149C7.14776 8.76618 8.00724 9.6938 9.12289 9.9134C9.26079 9.9493 9.4297 9.96191 9.52836 9.87631L10.4347 9.01598C10.7472 8.79495 11.1983 8.68692 11.5319 8.86765H11.5478L14.6166 10.5586C15.0672 10.8222 15.1141 11.3316 14.7916 11.6415Z" fill="#FFCCA8"/>
</svg>
