<svg width="178" height="20" viewBox="0 0 178 20" fill="none" xmlns="http://www.w3.org/2000/svg">
<path fill-rule="evenodd" clip-rule="evenodd" d="M0 1.67939C0 0.751888 0.784579 0 1.75241 0H19.1172C20.085 0 20.8696 0.751888 20.8696 1.67939V18.3206C20.8696 19.2481 20.085 20 19.1172 20H1.75241C0.784579 20 0 19.2481 0 18.3206V1.67939ZM10.1104 2.72678C10.2939 2.56926 10.5758 2.56926 10.7593 2.72678L19.8439 10.5256C20.1659 10.8021 19.9567 11.3043 19.5194 11.3043H1.35027C0.913013 11.3043 0.703764 10.8021 1.02582 10.5256L10.1104 2.72678ZM17.3911 11.3043H3.47803V20H17.3911V11.3043Z" fill="#476891"/>
<path d="M12.3478 9.17391C12.3478 10.3745 11.3745 11.3478 10.1739 11.3478C8.97329 11.3478 8 10.3745 8 9.17391C8 7.97329 8.97329 7 10.1739 7C11.3745 7 12.3478 7.97329 12.3478 9.17391Z" fill="#FF6700"/>
<path d="M7.82617 11.7874C7.82617 11.5206 8.02754 11.3043 8.27595 11.3043H11.7242C11.9726 11.3043 12.174 11.5206 12.174 11.7874V19.5169C12.174 19.7837 11.9726 20 11.7242 20H8.27595C8.02754 20 7.82617 19.7837 7.82617 19.5169V11.7874Z" fill="#FF6700"/>
<path d="M32.5405 18.0522C32.208 18.0522 31.9189 17.9339 31.6731 17.6974C31.4273 17.4609 31.3044 17.1826 31.3044 16.8626V4.00696C31.3044 3.68696 31.4273 3.4087 31.6731 3.17218C31.9189 2.93566 32.208 2.8174 32.5405 2.8174H33.4079C33.7404 2.8174 34.0295 2.93566 34.2753 3.17218C34.5211 3.4087 34.644 3.68696 34.644 4.00696V16.8626C34.644 17.1826 34.5211 17.4609 34.2753 17.6974C34.0295 17.9339 33.7404 18.0522 33.4079 18.0522H32.5405Z" fill="#FF6700"/>
<path d="M41.2267 18.0522C40.8942 18.0522 40.6051 17.9339 40.3593 17.6974C40.128 17.4609 40.0124 17.1826 40.0124 16.8626V4.00696C40.0124 3.68696 40.128 3.4087 40.3593 3.17218C40.6051 2.93566 40.8942 2.8174 41.2267 2.8174H41.7038C42.5279 2.8174 43.135 3.16523 43.5254 3.86088L48.8816 13.1687C48.8816 13.1826 48.8888 13.1896 48.9033 13.1896C48.9177 13.1896 48.925 13.1826 48.925 13.1687V4.00696C48.925 3.68696 49.0478 3.4087 49.2936 3.17218C49.5394 2.93566 49.8285 2.8174 50.161 2.8174H50.6381C50.9706 2.8174 51.2525 2.93566 51.4838 3.17218C51.7296 3.4087 51.8525 3.68696 51.8525 4.00696V16.8626C51.8525 17.1826 51.7296 17.4609 51.4838 17.6974C51.2525 17.9339 50.9706 18.0522 50.6381 18.0522H50.161C49.337 18.0522 48.7298 17.7044 48.3395 17.0087L42.9832 7.70088C42.9832 7.68696 42.976 7.68001 42.9616 7.68001C42.9471 7.68001 42.9399 7.68696 42.9399 7.70088V16.8626C42.9399 17.1826 42.817 17.4609 42.5712 17.6974C42.3255 17.9339 42.0363 18.0522 41.7038 18.0522H41.2267Z" fill="#FF6700"/>
<path d="M61.1793 11.6244C59.4445 11.0678 58.1867 10.3931 57.4061 9.60001C56.6398 8.80696 56.2567 7.84696 56.2567 6.72001C56.2567 5.45392 56.6977 4.45218 57.5795 3.71479C58.4614 2.9774 59.6975 2.6087 61.2877 2.6087C62.6322 2.6087 63.8032 2.75479 64.8007 3.04696C65.1476 3.14436 65.4223 3.34609 65.6247 3.65218C65.8416 3.94436 65.95 4.27131 65.95 4.63305V4.82088C65.95 5.08523 65.8271 5.29392 65.5814 5.44696C65.3356 5.58609 65.0826 5.60696 64.8224 5.50957C63.7381 5.10609 62.6322 4.90435 61.5045 4.90435C60.7817 4.90435 60.2324 5.06436 59.8565 5.38436C59.4806 5.70436 59.2927 6.14957 59.2927 6.72001C59.2927 7.72175 59.9721 8.43827 61.3311 8.86957C63.2827 9.46783 64.6344 10.1496 65.3862 10.9148C66.1524 11.68 66.5355 12.6678 66.5355 13.8783C66.5355 16.8 64.6633 18.2609 60.919 18.2609C59.7481 18.2609 58.6855 18.087 57.7313 17.7391C57.3844 17.6139 57.1097 17.3983 56.9073 17.0922C56.7194 16.7861 56.6254 16.4452 56.6254 16.0696V15.8191C56.6254 15.5548 56.741 15.367 56.9724 15.2557C57.2037 15.1304 57.4422 15.1235 57.688 15.2348C58.6421 15.6939 59.6469 15.9235 60.7022 15.9235C62.5382 15.9235 63.4562 15.2557 63.4562 13.92C63.4562 13.3774 63.2827 12.9322 62.9358 12.5844C62.5888 12.2226 62.0033 11.9026 61.1793 11.6244Z" fill="#FF6700"/>
<path d="M71.2086 5.23827C70.8761 5.23827 70.587 5.12696 70.3412 4.90435C70.0955 4.66783 69.9726 4.38957 69.9726 4.06957V4.00696C69.9726 3.68696 70.0955 3.4087 70.3412 3.17218C70.587 2.93566 70.8761 2.8174 71.2086 2.8174H80.4465C80.779 2.8174 81.0681 2.93566 81.3139 3.17218C81.5597 3.4087 81.6826 3.68696 81.6826 4.00696V4.06957C81.6826 4.38957 81.5597 4.66783 81.3139 4.90435C81.0681 5.12696 80.779 5.23827 80.4465 5.23827H77.5407C77.425 5.23827 77.3672 5.30088 77.3672 5.42609V16.8626C77.3672 17.1826 77.2443 17.4609 76.9986 17.6974C76.7528 17.9339 76.4637 18.0522 76.1312 18.0522H75.524C75.1915 18.0522 74.9023 17.9339 74.6566 17.6974C74.4108 17.4609 74.2879 17.1826 74.2879 16.8626V5.42609C74.2879 5.30088 74.2301 5.23827 74.1144 5.23827H71.2086Z" fill="#FF6700"/>
<path d="M89.1441 5.40523L87.2358 11.9583C87.2214 12 87.2286 12.0417 87.2575 12.0835C87.2864 12.1252 87.3226 12.1461 87.3659 12.1461H90.9657C91.009 12.1461 91.0452 12.1252 91.0741 12.0835C91.103 12.0417 91.1102 12 91.0958 11.9583L89.1875 5.40523C89.1875 5.39131 89.1802 5.38436 89.1658 5.38436C89.1513 5.38436 89.1441 5.39131 89.1441 5.40523ZM83.5277 18.0522C83.2241 18.0522 82.9855 17.9339 82.8121 17.6974C82.6386 17.4609 82.6024 17.2035 82.7036 16.9252L87.1924 3.94435C87.3226 3.61044 87.5322 3.33914 87.8213 3.13044C88.1249 2.92175 88.4574 2.8174 88.8188 2.8174H89.5995C89.9754 2.8174 90.3079 2.92175 90.597 3.13044C90.9006 3.33914 91.1102 3.61044 91.2259 3.94435L95.7147 16.9252C95.8159 17.2035 95.7798 17.4609 95.6063 17.6974C95.4328 17.9339 95.1943 18.0522 94.8907 18.0522H94.11C93.763 18.0522 93.4378 17.9478 93.1342 17.7391C92.845 17.5165 92.6499 17.2383 92.5487 16.9044L91.8548 14.5461C91.8403 14.4348 91.7608 14.3791 91.6162 14.3791H86.7154C86.5853 14.3791 86.5057 14.4348 86.4768 14.5461L85.7829 16.9044C85.6962 17.2383 85.501 17.5165 85.1974 17.7391C84.9083 17.9478 84.583 18.0522 84.2216 18.0522H83.5277Z" fill="#FF6700"/>
<path d="M100.601 18.0522C100.268 18.0522 99.9792 17.9339 99.7334 17.6974C99.5021 17.4609 99.3864 17.1826 99.3864 16.8626V4.00696C99.3864 3.68696 99.5021 3.4087 99.7334 3.17218C99.9792 2.93566 100.268 2.8174 100.601 2.8174H101.186C101.519 2.8174 101.808 2.93566 102.054 3.17218C102.299 3.4087 102.422 3.68696 102.422 4.00696V8.74436C102.422 8.85566 102.48 8.91131 102.596 8.91131H108.017C108.133 8.91131 108.191 8.85566 108.191 8.74436V4.00696C108.191 3.68696 108.313 3.4087 108.559 3.17218C108.805 2.93566 109.094 2.8174 109.427 2.8174H110.012C110.345 2.8174 110.627 2.93566 110.858 3.17218C111.104 3.4087 111.227 3.68696 111.227 4.00696V16.8626C111.227 17.1826 111.104 17.4609 110.858 17.6974C110.627 17.9339 110.345 18.0522 110.012 18.0522H109.427C109.094 18.0522 108.805 17.9339 108.559 17.6974C108.313 17.4609 108.191 17.1826 108.191 16.8626V11.3322C108.191 11.207 108.133 11.1444 108.017 11.1444H102.596C102.48 11.1444 102.422 11.207 102.422 11.3322V16.8626C102.422 17.1826 102.299 17.4609 102.054 17.6974C101.808 17.9339 101.519 18.0522 101.186 18.0522H100.601Z" fill="#FF6700"/>
<path d="M126.538 10.4348C126.538 6.8174 125.165 5.0087 122.418 5.0087C119.671 5.0087 118.298 6.8174 118.298 10.4348C118.298 14.0522 119.671 15.8609 122.418 15.8609C125.165 15.8609 126.538 14.0522 126.538 10.4348ZM127.688 16.1948C126.401 17.5722 124.645 18.2609 122.418 18.2609C120.192 18.2609 118.428 17.5722 117.127 16.1948C115.84 14.8174 115.197 12.8974 115.197 10.4348C115.197 7.97218 115.84 6.05218 117.127 4.67479C118.428 3.2974 120.192 2.6087 122.418 2.6087C124.645 2.6087 126.401 3.2974 127.688 4.67479C128.989 6.05218 129.639 7.97218 129.639 10.4348C129.639 12.8974 128.989 14.8174 127.688 16.1948Z" fill="#FF6700"/>
<path d="M134.852 18.0522C134.519 18.0522 134.23 17.9339 133.985 17.6974C133.739 17.4609 133.616 17.1826 133.616 16.8626V4.00696C133.616 3.68696 133.739 3.4087 133.985 3.17218C134.23 2.93566 134.519 2.8174 134.852 2.8174H135.394C135.77 2.8174 136.117 2.91479 136.435 3.10957C136.753 3.30436 136.984 3.56175 137.129 3.88175L140.924 11.7704C140.924 11.7844 140.931 11.7913 140.945 11.7913C140.96 11.7913 140.967 11.7844 140.967 11.7704L144.762 3.88175C144.907 3.56175 145.138 3.30436 145.456 3.10957C145.774 2.91479 146.121 2.8174 146.497 2.8174H147.126C147.458 2.8174 147.747 2.93566 147.993 3.17218C148.239 3.4087 148.362 3.68696 148.362 4.00696V16.8626C148.362 17.1826 148.239 17.4609 147.993 17.6974C147.747 17.9339 147.458 18.0522 147.126 18.0522H146.649C146.316 18.0522 146.027 17.9339 145.781 17.6974C145.535 17.4609 145.413 17.1826 145.413 16.8626V7.78436C145.413 7.77044 145.405 7.76349 145.391 7.76349C145.376 7.76349 145.369 7.77044 145.369 7.78436L142.767 13.1478C142.608 13.4678 142.362 13.7322 142.03 13.9409C141.712 14.1357 141.372 14.2331 141.011 14.2331H140.88C140.519 14.2331 140.172 14.1357 139.84 13.9409C139.521 13.7322 139.283 13.4678 139.124 13.1478L136.522 7.78436C136.522 7.77044 136.514 7.76349 136.5 7.76349C136.486 7.76349 136.478 7.77044 136.478 7.78436V16.8626C136.478 17.1826 136.355 17.4609 136.11 17.6974C135.864 17.9339 135.575 18.0522 135.242 18.0522H134.852Z" fill="#FF6700"/>
<path d="M154.54 18.0522C154.207 18.0522 153.918 17.9339 153.672 17.6974C153.427 17.4609 153.304 17.1826 153.304 16.8626V4.00696C153.304 3.68696 153.427 3.4087 153.672 3.17218C153.918 2.93566 154.207 2.8174 154.54 2.8174H161.913C162.245 2.8174 162.534 2.93566 162.78 3.17218C163.026 3.4087 163.149 3.68696 163.149 4.00696C163.149 4.32696 163.026 4.60522 162.78 4.84175C162.534 5.06436 162.245 5.17566 161.913 5.17566H156.535C156.405 5.17566 156.34 5.23827 156.34 5.36349V8.72349C156.34 8.8487 156.405 8.91131 156.535 8.91131H161.544C161.876 8.91131 162.151 9.02262 162.368 9.24523C162.599 9.46783 162.715 9.73218 162.715 10.0383C162.715 10.3444 162.599 10.6087 162.368 10.8313C162.151 11.04 161.876 11.1444 161.544 11.1444H156.535C156.405 11.1444 156.34 11.207 156.34 11.3322V15.5061C156.34 15.6313 156.405 15.6939 156.535 15.6939H161.913C162.245 15.6939 162.534 15.8122 162.78 16.0487C163.026 16.2713 163.149 16.5426 163.149 16.8626C163.149 17.1826 163.026 17.4609 162.78 17.6974C162.534 17.9339 162.245 18.0522 161.913 18.0522H154.54Z" fill="#FF6700"/>
<path d="M172.035 11.6244C170.3 11.0678 169.043 10.3931 168.262 9.60001C167.496 8.80696 167.113 7.84696 167.113 6.72001C167.113 5.45392 167.554 4.45218 168.435 3.71479C169.317 2.9774 170.553 2.6087 172.144 2.6087C173.488 2.6087 174.659 2.75479 175.657 3.04696C176.004 3.14436 176.278 3.34609 176.481 3.65218C176.697 3.94436 176.806 4.27131 176.806 4.63305V4.82088C176.806 5.08523 176.683 5.29392 176.437 5.44696C176.191 5.58609 175.939 5.60696 175.678 5.50957C174.594 5.10609 173.488 4.90435 172.36 4.90435C171.638 4.90435 171.088 5.06436 170.712 5.38436C170.337 5.70436 170.149 6.14957 170.149 6.72001C170.149 7.72175 170.828 8.43827 172.187 8.86957C174.139 9.46783 175.49 10.1496 176.242 10.9148C177.008 11.68 177.391 12.6678 177.391 13.8783C177.391 16.8 175.519 18.2609 171.775 18.2609C170.604 18.2609 169.541 18.087 168.587 17.7391C168.24 17.6139 167.966 17.3983 167.763 17.0922C167.575 16.7861 167.481 16.4452 167.481 16.0696V15.8191C167.481 15.5548 167.597 15.367 167.828 15.2557C168.06 15.1304 168.298 15.1235 168.544 15.2348C169.498 15.6939 170.503 15.9235 171.558 15.9235C173.394 15.9235 174.312 15.2557 174.312 13.92C174.312 13.3774 174.139 12.9322 173.792 12.5844C173.445 12.2226 172.859 11.9026 172.035 11.6244Z" fill="#FF6700"/>
</svg>
