<svg width="180" height="22" viewBox="0 0 180 22" fill="none" xmlns="http://www.w3.org/2000/svg">
<mask id="path-1-outside-1" maskUnits="userSpaceOnUse" x="31.3047" y="2.6084" width="149" height="18" fill="black">
<rect fill="white" x="31.3047" y="2.6084" width="149" height="18"/>
<path d="M33.5407 19.0519C33.2082 19.0519 32.9191 18.9336 32.6733 18.6971C32.4276 18.4606 32.3047 18.1823 32.3047 17.8623V5.00666C32.3047 4.68666 32.4276 4.4084 32.6733 4.17188C32.9191 3.93535 33.2082 3.81709 33.5407 3.81709H34.4081C34.7407 3.81709 35.0298 3.93535 35.2756 4.17188C35.5213 4.4084 35.6442 4.68666 35.6442 5.00666V17.8623C35.6442 18.1823 35.5213 18.4606 35.2756 18.6971C35.0298 18.9336 34.7407 19.0519 34.4081 19.0519H33.5407Z"/>
<path d="M42.227 19.0519C41.8945 19.0519 41.6053 18.9336 41.3596 18.6971C41.1283 18.4606 41.0126 18.1823 41.0126 17.8623V5.00666C41.0126 4.68666 41.1283 4.4084 41.3596 4.17188C41.6053 3.93535 41.8945 3.81709 42.227 3.81709H42.7041C43.5281 3.81709 44.1353 4.16492 44.5256 4.86057L49.8818 14.1684C49.8818 14.1823 49.8891 14.1893 49.9035 14.1893C49.918 14.1893 49.9252 14.1823 49.9252 14.1684V5.00666C49.9252 4.68666 50.0481 4.4084 50.2939 4.17188C50.5396 3.93535 50.8288 3.81709 51.1613 3.81709H51.6383C51.9708 3.81709 52.2527 3.93535 52.4841 4.17188C52.7298 4.4084 52.8527 4.68666 52.8527 5.00666V17.8623C52.8527 18.1823 52.7298 18.4606 52.4841 18.6971C52.2527 18.9336 51.9708 19.0519 51.6383 19.0519H51.1613C50.3372 19.0519 49.73 18.7041 49.3397 18.0084L43.9835 8.70057C43.9835 8.68666 43.9763 8.6797 43.9618 8.6797C43.9473 8.6797 43.9401 8.68666 43.9401 8.70057V17.8623C43.9401 18.1823 43.8172 18.4606 43.5715 18.6971C43.3257 18.9336 43.0366 19.0519 42.7041 19.0519H42.227Z"/>
<path d="M62.1795 12.6241C60.4447 12.0675 59.187 11.3927 58.4063 10.5997C57.6401 9.80666 57.257 8.84666 57.257 7.7197C57.257 6.45362 57.6979 5.45188 58.5798 4.71449C59.4616 3.97709 60.6977 3.6084 62.2879 3.6084C63.6324 3.6084 64.8034 3.75449 65.8009 4.04666C66.1479 4.14405 66.4226 4.34579 66.625 4.65188C66.8418 4.94405 66.9502 5.27101 66.9502 5.63275V5.82057C66.9502 6.08492 66.8274 6.29362 66.5816 6.44666C66.3358 6.58579 66.0828 6.60666 65.8226 6.50927C64.7384 6.10579 63.6324 5.90405 62.5048 5.90405C61.782 5.90405 61.2326 6.06405 60.8567 6.38405C60.4808 6.70405 60.2929 7.14927 60.2929 7.7197C60.2929 8.72144 60.9724 9.43796 62.3313 9.86927C64.283 10.4675 65.6347 11.1493 66.3864 11.9145C67.1526 12.6797 67.5357 13.6675 67.5357 14.878C67.5357 17.7997 65.6636 19.2606 61.9193 19.2606C60.7483 19.2606 59.6857 19.0867 58.7316 18.7388C58.3846 18.6136 58.1099 18.398 57.9075 18.0919C57.7196 17.7858 57.6256 17.4449 57.6256 17.0693V16.8188C57.6256 16.5545 57.7413 16.3667 57.9726 16.2554C58.2039 16.1301 58.4424 16.1232 58.6882 16.2345C59.6424 16.6936 60.6471 16.9232 61.7024 16.9232C63.5384 16.9232 64.4565 16.2554 64.4565 14.9197C64.4565 14.3771 64.283 13.9319 63.936 13.5841C63.589 13.2223 63.0035 12.9023 62.1795 12.6241Z"/>
<path d="M72.2089 6.23796C71.8764 6.23796 71.5872 6.12666 71.3415 5.90405C71.0957 5.66753 70.9728 5.38927 70.9728 5.06927V5.00666C70.9728 4.68666 71.0957 4.4084 71.3415 4.17188C71.5872 3.93535 71.8764 3.81709 72.2089 3.81709H81.4467C81.7793 3.81709 82.0684 3.93535 82.3142 4.17188C82.5599 4.4084 82.6828 4.68666 82.6828 5.00666V5.06927C82.6828 5.38927 82.5599 5.66753 82.3142 5.90405C82.0684 6.12666 81.7793 6.23796 81.4467 6.23796H78.5409C78.4253 6.23796 78.3675 6.30057 78.3675 6.42579V17.8623C78.3675 18.1823 78.2446 18.4606 77.9988 18.6971C77.7531 18.9336 77.4639 19.0519 77.1314 19.0519H76.5242C76.1917 19.0519 75.9026 18.9336 75.6568 18.6971C75.411 18.4606 75.2882 18.1823 75.2882 17.8623V6.42579C75.2882 6.30057 75.2303 6.23796 75.1147 6.23796H72.2089Z"/>
<path d="M90.1444 6.40492L88.2361 12.958C88.2216 12.9997 88.2288 13.0414 88.2577 13.0832C88.2867 13.1249 88.3228 13.1458 88.3662 13.1458H91.9659C92.0093 13.1458 92.0454 13.1249 92.0743 13.0832C92.1032 13.0414 92.1105 12.9997 92.096 12.958L90.1877 6.40492C90.1877 6.39101 90.1805 6.38405 90.166 6.38405C90.1516 6.38405 90.1444 6.39101 90.1444 6.40492ZM84.5279 19.0519C84.2243 19.0519 83.9858 18.9336 83.8123 18.6971C83.6388 18.4606 83.6027 18.2032 83.7039 17.9249L88.1927 4.94405C88.3228 4.61014 88.5324 4.33883 88.8216 4.13014C89.1251 3.92144 89.4577 3.81709 89.8191 3.81709H90.5997C90.9756 3.81709 91.3081 3.92144 91.5973 4.13014C91.9009 4.33883 92.1105 4.61014 92.2261 4.94405L96.715 17.9249C96.8161 18.2032 96.78 18.4606 96.6065 18.6971C96.433 18.9336 96.1945 19.0519 95.8909 19.0519H95.1103C94.7633 19.0519 94.438 18.9475 94.1344 18.7388C93.8453 18.5162 93.6501 18.238 93.5489 17.9041L92.855 15.5458C92.8405 15.4345 92.761 15.3788 92.6165 15.3788H87.7156C87.5855 15.3788 87.506 15.4345 87.4771 15.5458L86.7832 17.9041C86.6964 18.238 86.5012 18.5162 86.1977 18.7388C85.9085 18.9475 85.5832 19.0519 85.2218 19.0519H84.5279Z"/>
<path d="M101.601 19.0519C101.269 19.0519 100.979 18.9336 100.734 18.6971C100.502 18.4606 100.387 18.1823 100.387 17.8623V5.00666C100.387 4.68666 100.502 4.4084 100.734 4.17188C100.979 3.93535 101.269 3.81709 101.601 3.81709H102.187C102.519 3.81709 102.808 3.93535 103.054 4.17188C103.3 4.4084 103.423 4.68666 103.423 5.00666V9.74405C103.423 9.85535 103.48 9.91101 103.596 9.91101H109.017C109.133 9.91101 109.191 9.85535 109.191 9.74405V5.00666C109.191 4.68666 109.314 4.4084 109.559 4.17188C109.805 3.93535 110.094 3.81709 110.427 3.81709H111.012C111.345 3.81709 111.627 3.93535 111.858 4.17188C112.104 4.4084 112.227 4.68666 112.227 5.00666V17.8623C112.227 18.1823 112.104 18.4606 111.858 18.6971C111.627 18.9336 111.345 19.0519 111.012 19.0519H110.427C110.094 19.0519 109.805 18.9336 109.559 18.6971C109.314 18.4606 109.191 18.1823 109.191 17.8623V12.3319C109.191 12.2067 109.133 12.1441 109.017 12.1441H103.596C103.48 12.1441 103.423 12.2067 103.423 12.3319V17.8623C103.423 18.1823 103.3 18.4606 103.054 18.6971C102.808 18.9336 102.519 19.0519 102.187 19.0519H101.601Z"/>
<path d="M127.539 11.4345C127.539 7.81709 126.165 6.0084 123.418 6.0084C120.672 6.0084 119.298 7.81709 119.298 11.4345C119.298 15.0519 120.672 16.8606 123.418 16.8606C126.165 16.8606 127.539 15.0519 127.539 11.4345ZM128.688 17.1945C127.401 18.5719 125.645 19.2606 123.418 19.2606C121.192 19.2606 119.428 18.5719 118.127 17.1945C116.841 15.8171 116.197 13.8971 116.197 11.4345C116.197 8.97188 116.841 7.05188 118.127 5.67448C119.428 4.29709 121.192 3.6084 123.418 3.6084C125.645 3.6084 127.401 4.29709 128.688 5.67448C129.989 7.05188 130.64 8.97188 130.64 11.4345C130.64 13.8971 129.989 15.8171 128.688 17.1945Z"/>
<path d="M135.852 19.0519C135.52 19.0519 135.231 18.9336 134.985 18.6971C134.739 18.4606 134.616 18.1823 134.616 17.8623V5.00666C134.616 4.68666 134.739 4.4084 134.985 4.17188C135.231 3.93535 135.52 3.81709 135.852 3.81709H136.394C136.77 3.81709 137.117 3.91449 137.435 4.10927C137.753 4.30405 137.985 4.56144 138.129 4.88144L141.924 12.7701C141.924 12.784 141.931 12.791 141.946 12.791C141.96 12.791 141.967 12.784 141.967 12.7701L145.762 4.88144C145.907 4.56144 146.138 4.30405 146.456 4.10927C146.774 3.91449 147.121 3.81709 147.497 3.81709H148.126C148.458 3.81709 148.748 3.93535 148.993 4.17188C149.239 4.4084 149.362 4.68666 149.362 5.00666V17.8623C149.362 18.1823 149.239 18.4606 148.993 18.6971C148.748 18.9336 148.458 19.0519 148.126 19.0519H147.649C147.316 19.0519 147.027 18.9336 146.782 18.6971C146.536 18.4606 146.413 18.1823 146.413 17.8623V8.78405C146.413 8.77014 146.406 8.76318 146.391 8.76318C146.377 8.76318 146.369 8.77014 146.369 8.78405L143.767 14.1475C143.608 14.4675 143.362 14.7319 143.03 14.9406C142.712 15.1354 142.372 15.2327 142.011 15.2327H141.881C141.519 15.2327 141.172 15.1354 140.84 14.9406C140.522 14.7319 140.283 14.4675 140.124 14.1475L137.522 8.78405C137.522 8.77014 137.515 8.76318 137.5 8.76318C137.486 8.76318 137.479 8.77014 137.479 8.78405V17.8623C137.479 18.1823 137.356 18.4606 137.11 18.6971C136.864 18.9336 136.575 19.0519 136.243 19.0519H135.852Z"/>
<path d="M155.54 19.0519C155.207 19.0519 154.918 18.9336 154.673 18.6971C154.427 18.4606 154.304 18.1823 154.304 17.8623V5.00666C154.304 4.68666 154.427 4.4084 154.673 4.17188C154.918 3.93535 155.207 3.81709 155.54 3.81709H162.913C163.245 3.81709 163.535 3.93535 163.78 4.17188C164.026 4.4084 164.149 4.68666 164.149 5.00666C164.149 5.32666 164.026 5.60492 163.78 5.84144C163.535 6.06405 163.245 6.17535 162.913 6.17535H157.535C157.405 6.17535 157.34 6.23796 157.34 6.36318V9.72318C157.34 9.8484 157.405 9.91101 157.535 9.91101H162.544C162.877 9.91101 163.151 10.0223 163.368 10.2449C163.6 10.4675 163.715 10.7319 163.715 11.038C163.715 11.3441 163.6 11.6084 163.368 11.831C163.151 12.0397 162.877 12.1441 162.544 12.1441H157.535C157.405 12.1441 157.34 12.2067 157.34 12.3319V16.5058C157.34 16.631 157.405 16.6936 157.535 16.6936H162.913C163.245 16.6936 163.535 16.8119 163.78 17.0484C164.026 17.271 164.149 17.5423 164.149 17.8623C164.149 18.1823 164.026 18.4606 163.78 18.6971C163.535 18.9336 163.245 19.0519 162.913 19.0519H155.54Z"/>
<path d="M173.035 12.6241C171.301 12.0675 170.043 11.3927 169.262 10.5997C168.496 9.80666 168.113 8.84666 168.113 7.7197C168.113 6.45362 168.554 5.45188 169.436 4.71449C170.318 3.97709 171.554 3.6084 173.144 3.6084C174.488 3.6084 175.659 3.75449 176.657 4.04666C177.004 4.14405 177.278 4.34579 177.481 4.65188C177.698 4.94405 177.806 5.27101 177.806 5.63275V5.82057C177.806 6.08492 177.683 6.29362 177.438 6.44666C177.192 6.58579 176.939 6.60666 176.679 6.50927C175.594 6.10579 174.488 5.90405 173.361 5.90405C172.638 5.90405 172.089 6.06405 171.713 6.38405C171.337 6.70405 171.149 7.14927 171.149 7.7197C171.149 8.72144 171.828 9.43796 173.187 9.86927C175.139 10.4675 176.491 11.1493 177.242 11.9145C178.009 12.6797 178.392 13.6675 178.392 14.878C178.392 17.7997 176.519 19.2606 172.775 19.2606C171.604 19.2606 170.542 19.0867 169.587 18.7388C169.241 18.6136 168.966 18.398 168.763 18.0919C168.576 17.7858 168.482 17.4449 168.482 17.0693V16.8188C168.482 16.5545 168.597 16.3667 168.829 16.2554C169.06 16.1301 169.298 16.1232 169.544 16.2345C170.498 16.6936 171.503 16.9232 172.558 16.9232C174.394 16.9232 175.312 16.2554 175.312 14.9197C175.312 14.3771 175.139 13.9319 174.792 13.5841C174.445 13.2223 173.859 12.9023 173.035 12.6241Z"/>
</mask>
<path d="M33.5407 19.0519C33.2082 19.0519 32.9191 18.9336 32.6733 18.6971C32.4276 18.4606 32.3047 18.1823 32.3047 17.8623V5.00666C32.3047 4.68666 32.4276 4.4084 32.6733 4.17188C32.9191 3.93535 33.2082 3.81709 33.5407 3.81709H34.4081C34.7407 3.81709 35.0298 3.93535 35.2756 4.17188C35.5213 4.4084 35.6442 4.68666 35.6442 5.00666V17.8623C35.6442 18.1823 35.5213 18.4606 35.2756 18.6971C35.0298 18.9336 34.7407 19.0519 34.4081 19.0519H33.5407Z" fill="#FF6700"/>
<path d="M42.227 19.0519C41.8945 19.0519 41.6053 18.9336 41.3596 18.6971C41.1283 18.4606 41.0126 18.1823 41.0126 17.8623V5.00666C41.0126 4.68666 41.1283 4.4084 41.3596 4.17188C41.6053 3.93535 41.8945 3.81709 42.227 3.81709H42.7041C43.5281 3.81709 44.1353 4.16492 44.5256 4.86057L49.8818 14.1684C49.8818 14.1823 49.8891 14.1893 49.9035 14.1893C49.918 14.1893 49.9252 14.1823 49.9252 14.1684V5.00666C49.9252 4.68666 50.0481 4.4084 50.2939 4.17188C50.5396 3.93535 50.8288 3.81709 51.1613 3.81709H51.6383C51.9708 3.81709 52.2527 3.93535 52.4841 4.17188C52.7298 4.4084 52.8527 4.68666 52.8527 5.00666V17.8623C52.8527 18.1823 52.7298 18.4606 52.4841 18.6971C52.2527 18.9336 51.9708 19.0519 51.6383 19.0519H51.1613C50.3372 19.0519 49.73 18.7041 49.3397 18.0084L43.9835 8.70057C43.9835 8.68666 43.9763 8.6797 43.9618 8.6797C43.9473 8.6797 43.9401 8.68666 43.9401 8.70057V17.8623C43.9401 18.1823 43.8172 18.4606 43.5715 18.6971C43.3257 18.9336 43.0366 19.0519 42.7041 19.0519H42.227Z" fill="#FF6700"/>
<path d="M62.1795 12.6241C60.4447 12.0675 59.187 11.3927 58.4063 10.5997C57.6401 9.80666 57.257 8.84666 57.257 7.7197C57.257 6.45362 57.6979 5.45188 58.5798 4.71449C59.4616 3.97709 60.6977 3.6084 62.2879 3.6084C63.6324 3.6084 64.8034 3.75449 65.8009 4.04666C66.1479 4.14405 66.4226 4.34579 66.625 4.65188C66.8418 4.94405 66.9502 5.27101 66.9502 5.63275V5.82057C66.9502 6.08492 66.8274 6.29362 66.5816 6.44666C66.3358 6.58579 66.0828 6.60666 65.8226 6.50927C64.7384 6.10579 63.6324 5.90405 62.5048 5.90405C61.782 5.90405 61.2326 6.06405 60.8567 6.38405C60.4808 6.70405 60.2929 7.14927 60.2929 7.7197C60.2929 8.72144 60.9724 9.43796 62.3313 9.86927C64.283 10.4675 65.6347 11.1493 66.3864 11.9145C67.1526 12.6797 67.5357 13.6675 67.5357 14.878C67.5357 17.7997 65.6636 19.2606 61.9193 19.2606C60.7483 19.2606 59.6857 19.0867 58.7316 18.7388C58.3846 18.6136 58.1099 18.398 57.9075 18.0919C57.7196 17.7858 57.6256 17.4449 57.6256 17.0693V16.8188C57.6256 16.5545 57.7413 16.3667 57.9726 16.2554C58.2039 16.1301 58.4424 16.1232 58.6882 16.2345C59.6424 16.6936 60.6471 16.9232 61.7024 16.9232C63.5384 16.9232 64.4565 16.2554 64.4565 14.9197C64.4565 14.3771 64.283 13.9319 63.936 13.5841C63.589 13.2223 63.0035 12.9023 62.1795 12.6241Z" fill="#FF6700"/>
<path d="M72.2089 6.23796C71.8764 6.23796 71.5872 6.12666 71.3415 5.90405C71.0957 5.66753 70.9728 5.38927 70.9728 5.06927V5.00666C70.9728 4.68666 71.0957 4.4084 71.3415 4.17188C71.5872 3.93535 71.8764 3.81709 72.2089 3.81709H81.4467C81.7793 3.81709 82.0684 3.93535 82.3142 4.17188C82.5599 4.4084 82.6828 4.68666 82.6828 5.00666V5.06927C82.6828 5.38927 82.5599 5.66753 82.3142 5.90405C82.0684 6.12666 81.7793 6.23796 81.4467 6.23796H78.5409C78.4253 6.23796 78.3675 6.30057 78.3675 6.42579V17.8623C78.3675 18.1823 78.2446 18.4606 77.9988 18.6971C77.7531 18.9336 77.4639 19.0519 77.1314 19.0519H76.5242C76.1917 19.0519 75.9026 18.9336 75.6568 18.6971C75.411 18.4606 75.2882 18.1823 75.2882 17.8623V6.42579C75.2882 6.30057 75.2303 6.23796 75.1147 6.23796H72.2089Z" fill="#FF6700"/>
<path d="M90.1444 6.40492L88.2361 12.958C88.2216 12.9997 88.2288 13.0414 88.2577 13.0832C88.2867 13.1249 88.3228 13.1458 88.3662 13.1458H91.9659C92.0093 13.1458 92.0454 13.1249 92.0743 13.0832C92.1032 13.0414 92.1105 12.9997 92.096 12.958L90.1877 6.40492C90.1877 6.39101 90.1805 6.38405 90.166 6.38405C90.1516 6.38405 90.1444 6.39101 90.1444 6.40492ZM84.5279 19.0519C84.2243 19.0519 83.9858 18.9336 83.8123 18.6971C83.6388 18.4606 83.6027 18.2032 83.7039 17.9249L88.1927 4.94405C88.3228 4.61014 88.5324 4.33883 88.8216 4.13014C89.1251 3.92144 89.4577 3.81709 89.8191 3.81709H90.5997C90.9756 3.81709 91.3081 3.92144 91.5973 4.13014C91.9009 4.33883 92.1105 4.61014 92.2261 4.94405L96.715 17.9249C96.8161 18.2032 96.78 18.4606 96.6065 18.6971C96.433 18.9336 96.1945 19.0519 95.8909 19.0519H95.1103C94.7633 19.0519 94.438 18.9475 94.1344 18.7388C93.8453 18.5162 93.6501 18.238 93.5489 17.9041L92.855 15.5458C92.8405 15.4345 92.761 15.3788 92.6165 15.3788H87.7156C87.5855 15.3788 87.506 15.4345 87.4771 15.5458L86.7832 17.9041C86.6964 18.238 86.5012 18.5162 86.1977 18.7388C85.9085 18.9475 85.5832 19.0519 85.2218 19.0519H84.5279Z" fill="#FF6700"/>
<path d="M101.601 19.0519C101.269 19.0519 100.979 18.9336 100.734 18.6971C100.502 18.4606 100.387 18.1823 100.387 17.8623V5.00666C100.387 4.68666 100.502 4.4084 100.734 4.17188C100.979 3.93535 101.269 3.81709 101.601 3.81709H102.187C102.519 3.81709 102.808 3.93535 103.054 4.17188C103.3 4.4084 103.423 4.68666 103.423 5.00666V9.74405C103.423 9.85535 103.48 9.91101 103.596 9.91101H109.017C109.133 9.91101 109.191 9.85535 109.191 9.74405V5.00666C109.191 4.68666 109.314 4.4084 109.559 4.17188C109.805 3.93535 110.094 3.81709 110.427 3.81709H111.012C111.345 3.81709 111.627 3.93535 111.858 4.17188C112.104 4.4084 112.227 4.68666 112.227 5.00666V17.8623C112.227 18.1823 112.104 18.4606 111.858 18.6971C111.627 18.9336 111.345 19.0519 111.012 19.0519H110.427C110.094 19.0519 109.805 18.9336 109.559 18.6971C109.314 18.4606 109.191 18.1823 109.191 17.8623V12.3319C109.191 12.2067 109.133 12.1441 109.017 12.1441H103.596C103.48 12.1441 103.423 12.2067 103.423 12.3319V17.8623C103.423 18.1823 103.3 18.4606 103.054 18.6971C102.808 18.9336 102.519 19.0519 102.187 19.0519H101.601Z" fill="#FF6700"/>
<path d="M127.539 11.4345C127.539 7.81709 126.165 6.0084 123.418 6.0084C120.672 6.0084 119.298 7.81709 119.298 11.4345C119.298 15.0519 120.672 16.8606 123.418 16.8606C126.165 16.8606 127.539 15.0519 127.539 11.4345ZM128.688 17.1945C127.401 18.5719 125.645 19.2606 123.418 19.2606C121.192 19.2606 119.428 18.5719 118.127 17.1945C116.841 15.8171 116.197 13.8971 116.197 11.4345C116.197 8.97188 116.841 7.05188 118.127 5.67448C119.428 4.29709 121.192 3.6084 123.418 3.6084C125.645 3.6084 127.401 4.29709 128.688 5.67448C129.989 7.05188 130.64 8.97188 130.64 11.4345C130.64 13.8971 129.989 15.8171 128.688 17.1945Z" fill="#FF6700"/>
<path d="M135.852 19.0519C135.52 19.0519 135.231 18.9336 134.985 18.6971C134.739 18.4606 134.616 18.1823 134.616 17.8623V5.00666C134.616 4.68666 134.739 4.4084 134.985 4.17188C135.231 3.93535 135.52 3.81709 135.852 3.81709H136.394C136.77 3.81709 137.117 3.91449 137.435 4.10927C137.753 4.30405 137.985 4.56144 138.129 4.88144L141.924 12.7701C141.924 12.784 141.931 12.791 141.946 12.791C141.96 12.791 141.967 12.784 141.967 12.7701L145.762 4.88144C145.907 4.56144 146.138 4.30405 146.456 4.10927C146.774 3.91449 147.121 3.81709 147.497 3.81709H148.126C148.458 3.81709 148.748 3.93535 148.993 4.17188C149.239 4.4084 149.362 4.68666 149.362 5.00666V17.8623C149.362 18.1823 149.239 18.4606 148.993 18.6971C148.748 18.9336 148.458 19.0519 148.126 19.0519H147.649C147.316 19.0519 147.027 18.9336 146.782 18.6971C146.536 18.4606 146.413 18.1823 146.413 17.8623V8.78405C146.413 8.77014 146.406 8.76318 146.391 8.76318C146.377 8.76318 146.369 8.77014 146.369 8.78405L143.767 14.1475C143.608 14.4675 143.362 14.7319 143.03 14.9406C142.712 15.1354 142.372 15.2327 142.011 15.2327H141.881C141.519 15.2327 141.172 15.1354 140.84 14.9406C140.522 14.7319 140.283 14.4675 140.124 14.1475L137.522 8.78405C137.522 8.77014 137.515 8.76318 137.5 8.76318C137.486 8.76318 137.479 8.77014 137.479 8.78405V17.8623C137.479 18.1823 137.356 18.4606 137.11 18.6971C136.864 18.9336 136.575 19.0519 136.243 19.0519H135.852Z" fill="#FF6700"/>
<path d="M155.54 19.0519C155.207 19.0519 154.918 18.9336 154.673 18.6971C154.427 18.4606 154.304 18.1823 154.304 17.8623V5.00666C154.304 4.68666 154.427 4.4084 154.673 4.17188C154.918 3.93535 155.207 3.81709 155.54 3.81709H162.913C163.245 3.81709 163.535 3.93535 163.78 4.17188C164.026 4.4084 164.149 4.68666 164.149 5.00666C164.149 5.32666 164.026 5.60492 163.78 5.84144C163.535 6.06405 163.245 6.17535 162.913 6.17535H157.535C157.405 6.17535 157.34 6.23796 157.34 6.36318V9.72318C157.34 9.8484 157.405 9.91101 157.535 9.91101H162.544C162.877 9.91101 163.151 10.0223 163.368 10.2449C163.6 10.4675 163.715 10.7319 163.715 11.038C163.715 11.3441 163.6 11.6084 163.368 11.831C163.151 12.0397 162.877 12.1441 162.544 12.1441H157.535C157.405 12.1441 157.34 12.2067 157.34 12.3319V16.5058C157.34 16.631 157.405 16.6936 157.535 16.6936H162.913C163.245 16.6936 163.535 16.8119 163.78 17.0484C164.026 17.271 164.149 17.5423 164.149 17.8623C164.149 18.1823 164.026 18.4606 163.78 18.6971C163.535 18.9336 163.245 19.0519 162.913 19.0519H155.54Z" fill="#FF6700"/>
<path d="M173.035 12.6241C171.301 12.0675 170.043 11.3927 169.262 10.5997C168.496 9.80666 168.113 8.84666 168.113 7.7197C168.113 6.45362 168.554 5.45188 169.436 4.71449C170.318 3.97709 171.554 3.6084 173.144 3.6084C174.488 3.6084 175.659 3.75449 176.657 4.04666C177.004 4.14405 177.278 4.34579 177.481 4.65188C177.698 4.94405 177.806 5.27101 177.806 5.63275V5.82057C177.806 6.08492 177.683 6.29362 177.438 6.44666C177.192 6.58579 176.939 6.60666 176.679 6.50927C175.594 6.10579 174.488 5.90405 173.361 5.90405C172.638 5.90405 172.089 6.06405 171.713 6.38405C171.337 6.70405 171.149 7.14927 171.149 7.7197C171.149 8.72144 171.828 9.43796 173.187 9.86927C175.139 10.4675 176.491 11.1493 177.242 11.9145C178.009 12.6797 178.392 13.6675 178.392 14.878C178.392 17.7997 176.519 19.2606 172.775 19.2606C171.604 19.2606 170.542 19.0867 169.587 18.7388C169.241 18.6136 168.966 18.398 168.763 18.0919C168.576 17.7858 168.482 17.4449 168.482 17.0693V16.8188C168.482 16.5545 168.597 16.3667 168.829 16.2554C169.06 16.1301 169.298 16.1232 169.544 16.2345C170.498 16.6936 171.503 16.9232 172.558 16.9232C174.394 16.9232 175.312 16.2554 175.312 14.9197C175.312 14.3771 175.139 13.9319 174.792 13.5841C174.445 13.2223 173.859 12.9023 173.035 12.6241Z" fill="#FF6700"/>
<path d="M33.5407 19.0519C33.2082 19.0519 32.9191 18.9336 32.6733 18.6971C32.4276 18.4606 32.3047 18.1823 32.3047 17.8623V5.00666C32.3047 4.68666 32.4276 4.4084 32.6733 4.17188C32.9191 3.93535 33.2082 3.81709 33.5407 3.81709H34.4081C34.7407 3.81709 35.0298 3.93535 35.2756 4.17188C35.5213 4.4084 35.6442 4.68666 35.6442 5.00666V17.8623C35.6442 18.1823 35.5213 18.4606 35.2756 18.6971C35.0298 18.9336 34.7407 19.0519 34.4081 19.0519H33.5407Z" stroke="#F6F6F6" stroke-width="2" mask="url(#path-1-outside-1)"/>
<path d="M42.227 19.0519C41.8945 19.0519 41.6053 18.9336 41.3596 18.6971C41.1283 18.4606 41.0126 18.1823 41.0126 17.8623V5.00666C41.0126 4.68666 41.1283 4.4084 41.3596 4.17188C41.6053 3.93535 41.8945 3.81709 42.227 3.81709H42.7041C43.5281 3.81709 44.1353 4.16492 44.5256 4.86057L49.8818 14.1684C49.8818 14.1823 49.8891 14.1893 49.9035 14.1893C49.918 14.1893 49.9252 14.1823 49.9252 14.1684V5.00666C49.9252 4.68666 50.0481 4.4084 50.2939 4.17188C50.5396 3.93535 50.8288 3.81709 51.1613 3.81709H51.6383C51.9708 3.81709 52.2527 3.93535 52.4841 4.17188C52.7298 4.4084 52.8527 4.68666 52.8527 5.00666V17.8623C52.8527 18.1823 52.7298 18.4606 52.4841 18.6971C52.2527 18.9336 51.9708 19.0519 51.6383 19.0519H51.1613C50.3372 19.0519 49.73 18.7041 49.3397 18.0084L43.9835 8.70057C43.9835 8.68666 43.9763 8.6797 43.9618 8.6797C43.9473 8.6797 43.9401 8.68666 43.9401 8.70057V17.8623C43.9401 18.1823 43.8172 18.4606 43.5715 18.6971C43.3257 18.9336 43.0366 19.0519 42.7041 19.0519H42.227Z" stroke="#F6F6F6" stroke-width="2" mask="url(#path-1-outside-1)"/>
<path d="M62.1795 12.6241C60.4447 12.0675 59.187 11.3927 58.4063 10.5997C57.6401 9.80666 57.257 8.84666 57.257 7.7197C57.257 6.45362 57.6979 5.45188 58.5798 4.71449C59.4616 3.97709 60.6977 3.6084 62.2879 3.6084C63.6324 3.6084 64.8034 3.75449 65.8009 4.04666C66.1479 4.14405 66.4226 4.34579 66.625 4.65188C66.8418 4.94405 66.9502 5.27101 66.9502 5.63275V5.82057C66.9502 6.08492 66.8274 6.29362 66.5816 6.44666C66.3358 6.58579 66.0828 6.60666 65.8226 6.50927C64.7384 6.10579 63.6324 5.90405 62.5048 5.90405C61.782 5.90405 61.2326 6.06405 60.8567 6.38405C60.4808 6.70405 60.2929 7.14927 60.2929 7.7197C60.2929 8.72144 60.9724 9.43796 62.3313 9.86927C64.283 10.4675 65.6347 11.1493 66.3864 11.9145C67.1526 12.6797 67.5357 13.6675 67.5357 14.878C67.5357 17.7997 65.6636 19.2606 61.9193 19.2606C60.7483 19.2606 59.6857 19.0867 58.7316 18.7388C58.3846 18.6136 58.1099 18.398 57.9075 18.0919C57.7196 17.7858 57.6256 17.4449 57.6256 17.0693V16.8188C57.6256 16.5545 57.7413 16.3667 57.9726 16.2554C58.2039 16.1301 58.4424 16.1232 58.6882 16.2345C59.6424 16.6936 60.6471 16.9232 61.7024 16.9232C63.5384 16.9232 64.4565 16.2554 64.4565 14.9197C64.4565 14.3771 64.283 13.9319 63.936 13.5841C63.589 13.2223 63.0035 12.9023 62.1795 12.6241Z" stroke="#F6F6F6" stroke-width="2" mask="url(#path-1-outside-1)"/>
<path d="M72.2089 6.23796C71.8764 6.23796 71.5872 6.12666 71.3415 5.90405C71.0957 5.66753 70.9728 5.38927 70.9728 5.06927V5.00666C70.9728 4.68666 71.0957 4.4084 71.3415 4.17188C71.5872 3.93535 71.8764 3.81709 72.2089 3.81709H81.4467C81.7793 3.81709 82.0684 3.93535 82.3142 4.17188C82.5599 4.4084 82.6828 4.68666 82.6828 5.00666V5.06927C82.6828 5.38927 82.5599 5.66753 82.3142 5.90405C82.0684 6.12666 81.7793 6.23796 81.4467 6.23796H78.5409C78.4253 6.23796 78.3675 6.30057 78.3675 6.42579V17.8623C78.3675 18.1823 78.2446 18.4606 77.9988 18.6971C77.7531 18.9336 77.4639 19.0519 77.1314 19.0519H76.5242C76.1917 19.0519 75.9026 18.9336 75.6568 18.6971C75.411 18.4606 75.2882 18.1823 75.2882 17.8623V6.42579C75.2882 6.30057 75.2303 6.23796 75.1147 6.23796H72.2089Z" stroke="#F6F6F6" stroke-width="2" mask="url(#path-1-outside-1)"/>
<path d="M90.1444 6.40492L88.2361 12.958C88.2216 12.9997 88.2288 13.0414 88.2577 13.0832C88.2867 13.1249 88.3228 13.1458 88.3662 13.1458H91.9659C92.0093 13.1458 92.0454 13.1249 92.0743 13.0832C92.1032 13.0414 92.1105 12.9997 92.096 12.958L90.1877 6.40492C90.1877 6.39101 90.1805 6.38405 90.166 6.38405C90.1516 6.38405 90.1444 6.39101 90.1444 6.40492ZM84.5279 19.0519C84.2243 19.0519 83.9858 18.9336 83.8123 18.6971C83.6388 18.4606 83.6027 18.2032 83.7039 17.9249L88.1927 4.94405C88.3228 4.61014 88.5324 4.33883 88.8216 4.13014C89.1251 3.92144 89.4577 3.81709 89.8191 3.81709H90.5997C90.9756 3.81709 91.3081 3.92144 91.5973 4.13014C91.9009 4.33883 92.1105 4.61014 92.2261 4.94405L96.715 17.9249C96.8161 18.2032 96.78 18.4606 96.6065 18.6971C96.433 18.9336 96.1945 19.0519 95.8909 19.0519H95.1103C94.7633 19.0519 94.438 18.9475 94.1344 18.7388C93.8453 18.5162 93.6501 18.238 93.5489 17.9041L92.855 15.5458C92.8405 15.4345 92.761 15.3788 92.6165 15.3788H87.7156C87.5855 15.3788 87.506 15.4345 87.4771 15.5458L86.7832 17.9041C86.6964 18.238 86.5012 18.5162 86.1977 18.7388C85.9085 18.9475 85.5832 19.0519 85.2218 19.0519H84.5279Z" stroke="#F6F6F6" stroke-width="2" mask="url(#path-1-outside-1)"/>
<path d="M101.601 19.0519C101.269 19.0519 100.979 18.9336 100.734 18.6971C100.502 18.4606 100.387 18.1823 100.387 17.8623V5.00666C100.387 4.68666 100.502 4.4084 100.734 4.17188C100.979 3.93535 101.269 3.81709 101.601 3.81709H102.187C102.519 3.81709 102.808 3.93535 103.054 4.17188C103.3 4.4084 103.423 4.68666 103.423 5.00666V9.74405C103.423 9.85535 103.48 9.91101 103.596 9.91101H109.017C109.133 9.91101 109.191 9.85535 109.191 9.74405V5.00666C109.191 4.68666 109.314 4.4084 109.559 4.17188C109.805 3.93535 110.094 3.81709 110.427 3.81709H111.012C111.345 3.81709 111.627 3.93535 111.858 4.17188C112.104 4.4084 112.227 4.68666 112.227 5.00666V17.8623C112.227 18.1823 112.104 18.4606 111.858 18.6971C111.627 18.9336 111.345 19.0519 111.012 19.0519H110.427C110.094 19.0519 109.805 18.9336 109.559 18.6971C109.314 18.4606 109.191 18.1823 109.191 17.8623V12.3319C109.191 12.2067 109.133 12.1441 109.017 12.1441H103.596C103.48 12.1441 103.423 12.2067 103.423 12.3319V17.8623C103.423 18.1823 103.3 18.4606 103.054 18.6971C102.808 18.9336 102.519 19.0519 102.187 19.0519H101.601Z" stroke="#F6F6F6" stroke-width="2" mask="url(#path-1-outside-1)"/>
<path d="M127.539 11.4345C127.539 7.81709 126.165 6.0084 123.418 6.0084C120.672 6.0084 119.298 7.81709 119.298 11.4345C119.298 15.0519 120.672 16.8606 123.418 16.8606C126.165 16.8606 127.539 15.0519 127.539 11.4345ZM128.688 17.1945C127.401 18.5719 125.645 19.2606 123.418 19.2606C121.192 19.2606 119.428 18.5719 118.127 17.1945C116.841 15.8171 116.197 13.8971 116.197 11.4345C116.197 8.97188 116.841 7.05188 118.127 5.67448C119.428 4.29709 121.192 3.6084 123.418 3.6084C125.645 3.6084 127.401 4.29709 128.688 5.67448C129.989 7.05188 130.64 8.97188 130.64 11.4345C130.64 13.8971 129.989 15.8171 128.688 17.1945Z" stroke="#F6F6F6" stroke-width="2" mask="url(#path-1-outside-1)"/>
<path d="M135.852 19.0519C135.52 19.0519 135.231 18.9336 134.985 18.6971C134.739 18.4606 134.616 18.1823 134.616 17.8623V5.00666C134.616 4.68666 134.739 4.4084 134.985 4.17188C135.231 3.93535 135.52 3.81709 135.852 3.81709H136.394C136.77 3.81709 137.117 3.91449 137.435 4.10927C137.753 4.30405 137.985 4.56144 138.129 4.88144L141.924 12.7701C141.924 12.784 141.931 12.791 141.946 12.791C141.96 12.791 141.967 12.784 141.967 12.7701L145.762 4.88144C145.907 4.56144 146.138 4.30405 146.456 4.10927C146.774 3.91449 147.121 3.81709 147.497 3.81709H148.126C148.458 3.81709 148.748 3.93535 148.993 4.17188C149.239 4.4084 149.362 4.68666 149.362 5.00666V17.8623C149.362 18.1823 149.239 18.4606 148.993 18.6971C148.748 18.9336 148.458 19.0519 148.126 19.0519H147.649C147.316 19.0519 147.027 18.9336 146.782 18.6971C146.536 18.4606 146.413 18.1823 146.413 17.8623V8.78405C146.413 8.77014 146.406 8.76318 146.391 8.76318C146.377 8.76318 146.369 8.77014 146.369 8.78405L143.767 14.1475C143.608 14.4675 143.362 14.7319 143.03 14.9406C142.712 15.1354 142.372 15.2327 142.011 15.2327H141.881C141.519 15.2327 141.172 15.1354 140.84 14.9406C140.522 14.7319 140.283 14.4675 140.124 14.1475L137.522 8.78405C137.522 8.77014 137.515 8.76318 137.5 8.76318C137.486 8.76318 137.479 8.77014 137.479 8.78405V17.8623C137.479 18.1823 137.356 18.4606 137.11 18.6971C136.864 18.9336 136.575 19.0519 136.243 19.0519H135.852Z" stroke="#F6F6F6" stroke-width="2" mask="url(#path-1-outside-1)"/>
<path d="M155.54 19.0519C155.207 19.0519 154.918 18.9336 154.673 18.6971C154.427 18.4606 154.304 18.1823 154.304 17.8623V5.00666C154.304 4.68666 154.427 4.4084 154.673 4.17188C154.918 3.93535 155.207 3.81709 155.54 3.81709H162.913C163.245 3.81709 163.535 3.93535 163.78 4.17188C164.026 4.4084 164.149 4.68666 164.149 5.00666C164.149 5.32666 164.026 5.60492 163.78 5.84144C163.535 6.06405 163.245 6.17535 162.913 6.17535H157.535C157.405 6.17535 157.34 6.23796 157.34 6.36318V9.72318C157.34 9.8484 157.405 9.91101 157.535 9.91101H162.544C162.877 9.91101 163.151 10.0223 163.368 10.2449C163.6 10.4675 163.715 10.7319 163.715 11.038C163.715 11.3441 163.6 11.6084 163.368 11.831C163.151 12.0397 162.877 12.1441 162.544 12.1441H157.535C157.405 12.1441 157.34 12.2067 157.34 12.3319V16.5058C157.34 16.631 157.405 16.6936 157.535 16.6936H162.913C163.245 16.6936 163.535 16.8119 163.78 17.0484C164.026 17.271 164.149 17.5423 164.149 17.8623C164.149 18.1823 164.026 18.4606 163.78 18.6971C163.535 18.9336 163.245 19.0519 162.913 19.0519H155.54Z" stroke="#F6F6F6" stroke-width="2" mask="url(#path-1-outside-1)"/>
<path d="M173.035 12.6241C171.301 12.0675 170.043 11.3927 169.262 10.5997C168.496 9.80666 168.113 8.84666 168.113 7.7197C168.113 6.45362 168.554 5.45188 169.436 4.71449C170.318 3.97709 171.554 3.6084 173.144 3.6084C174.488 3.6084 175.659 3.75449 176.657 4.04666C177.004 4.14405 177.278 4.34579 177.481 4.65188C177.698 4.94405 177.806 5.27101 177.806 5.63275V5.82057C177.806 6.08492 177.683 6.29362 177.438 6.44666C177.192 6.58579 176.939 6.60666 176.679 6.50927C175.594 6.10579 174.488 5.90405 173.361 5.90405C172.638 5.90405 172.089 6.06405 171.713 6.38405C171.337 6.70405 171.149 7.14927 171.149 7.7197C171.149 8.72144 171.828 9.43796 173.187 9.86927C175.139 10.4675 176.491 11.1493 177.242 11.9145C178.009 12.6797 178.392 13.6675 178.392 14.878C178.392 17.7997 176.519 19.2606 172.775 19.2606C171.604 19.2606 170.542 19.0867 169.587 18.7388C169.241 18.6136 168.966 18.398 168.763 18.0919C168.576 17.7858 168.482 17.4449 168.482 17.0693V16.8188C168.482 16.5545 168.597 16.3667 168.829 16.2554C169.06 16.1301 169.298 16.1232 169.544 16.2345C170.498 16.6936 171.503 16.9232 172.558 16.9232C174.394 16.9232 175.312 16.2554 175.312 14.9197C175.312 14.3771 175.139 13.9319 174.792 13.5841C174.445 13.2223 173.859 12.9023 173.035 12.6241Z" stroke="#F6F6F6" stroke-width="2" mask="url(#path-1-outside-1)"/>
<rect width="23" height="22" rx="3" fill="#F7F7F7"/>
<path d="M13.174 10.1305C13.174 11.3311 12.2007 12.3044 11.0001 12.3044C9.79947 12.3044 8.82617 11.3311 8.82617 10.1305C8.82617 8.92984 9.79947 7.95654 11.0001 7.95654C12.2007 7.95654 13.174 8.92984 13.174 10.1305Z" fill="#FF6700"/>
<path d="M8.82617 12.7873C8.82617 12.5205 9.02754 12.3042 9.27595 12.3042H12.7242C12.9726 12.3042 13.174 12.5205 13.174 12.7873V20.5168C13.174 20.7836 12.9726 20.9999 12.7242 20.9999H9.27595C9.02754 20.9999 8.82617 20.7836 8.82617 20.5168V12.7873Z" fill="#FF6700"/>
<path fill-rule="evenodd" clip-rule="evenodd" d="M1 2.67939C1 1.75189 1.78458 1 2.75241 1H20.1172C21.085 1 21.8696 1.75189 21.8696 2.67939V19.3206C21.8696 20.2481 21.085 21 20.1172 21H2.75241C1.78458 21 1 20.2481 1 19.3206V2.67939ZM11.1104 3.72678C11.2939 3.56926 11.5758 3.56926 11.7593 3.72678L20.8439 11.5256C21.1659 11.8021 20.9567 12.3043 20.5194 12.3043H2.35027C1.91301 12.3043 1.70376 11.8021 2.02582 11.5256L11.1104 3.72678ZM18.3911 12.3043H4.47803V21H18.3911V12.3043Z" fill="#3F526A"/>
</svg>
