<svg width="178" height="20" viewBox="0 0 178 20" fill="none" xmlns="http://www.w3.org/2000/svg">
<path fill-rule="evenodd" clip-rule="evenodd" d="M0 1.67939C0 0.751888 0.784579 0 1.75241 0H19.1172C20.085 0 20.8696 0.751888 20.8696 1.67939V18.3206C20.8696 19.2481 20.085 20 19.1172 20H1.75241C0.784579 20 0 19.2481 0 18.3206V1.67939ZM10.1104 2.72678C10.2939 2.56926 10.5758 2.56926 10.7593 2.72678L19.8439 10.5256C20.1659 10.8021 19.9567 11.3043 19.5194 11.3043H1.35027C0.913013 11.3043 0.703764 10.8021 1.02582 10.5256L10.1104 2.72678ZM17.3911 11.3043H3.47803V20H17.3911V11.3043Z" fill="#476891"/>
<path d="M12.3478 9.17391C12.3478 10.3745 11.3745 11.3478 10.1739 11.3478C8.97329 11.3478 8 10.3745 8 9.17391C8 7.97329 8.97329 7 10.1739 7C11.3745 7 12.3478 7.97329 12.3478 9.17391Z" fill="#FF6700"/>
<path d="M7.82617 11.7874C7.82617 11.5206 8.02754 11.3043 8.27595 11.3043H11.7242C11.9726 11.3043 12.174 11.5206 12.174 11.7874V19.5169C12.174 19.7837 11.9726 20 11.7242 20H8.27595C8.02754 20 7.82617 19.7837 7.82617 19.5169V11.7874Z" fill="#FF6700"/>
<path d="M32.5403 18.0521C32.2077 18.0521 31.9186 17.9339 31.6728 17.6973C31.4271 17.4608 31.3042 17.1826 31.3042 16.8626V4.0069C31.3042 3.6869 31.4271 3.40864 31.6728 3.17212C31.9186 2.9356 32.2077 2.81734 32.5403 2.81734H33.4077C33.7402 2.81734 34.0293 2.9356 34.2751 3.17212C34.5208 3.40864 34.6437 3.6869 34.6437 4.0069V16.8626C34.6437 17.1826 34.5208 17.4608 34.2751 17.6973C34.0293 17.9339 33.7402 18.0521 33.4077 18.0521H32.5403Z" fill="#FF6700"/>
<path d="M41.2265 18.0521C40.894 18.0521 40.6049 17.9339 40.3591 17.6973C40.1278 17.4608 40.0121 17.1826 40.0121 16.8626V4.0069C40.0121 3.6869 40.1278 3.40864 40.3591 3.17212C40.6049 2.9356 40.894 2.81734 41.2265 2.81734H41.7036C42.5276 2.81734 43.1348 3.16516 43.5251 3.86082L48.8814 13.1686C48.8814 13.1826 48.8886 13.1895 48.903 13.1895C48.9175 13.1895 48.9247 13.1826 48.9247 13.1686V4.0069C48.9247 3.6869 49.0476 3.40864 49.2934 3.17212C49.5391 2.9356 49.8283 2.81734 50.1608 2.81734H50.6378C50.9704 2.81734 51.2523 2.9356 51.4836 3.17212C51.7293 3.40864 51.8522 3.6869 51.8522 4.0069V16.8626C51.8522 17.1826 51.7293 17.4608 51.4836 17.6973C51.2523 17.9339 50.9704 18.0521 50.6378 18.0521H50.1608C49.3367 18.0521 48.7296 17.7043 48.3392 17.0086L42.983 7.70082C42.983 7.6869 42.9758 7.67995 42.9613 7.67995C42.9469 7.67995 42.9396 7.6869 42.9396 7.70082V16.8626C42.9396 17.1826 42.8167 17.4608 42.571 17.6973C42.3252 17.9339 42.0361 18.0521 41.7036 18.0521H41.2265Z" fill="#FF6700"/>
<path d="M61.179 11.6243C59.4442 11.0678 58.1865 10.393 57.4058 9.59995C56.6396 8.8069 56.2565 7.8469 56.2565 6.71995C56.2565 5.45386 56.6974 4.45212 57.5793 3.71473C58.4612 2.97734 59.6972 2.60864 61.2875 2.60864C62.6319 2.60864 63.8029 2.75473 64.8004 3.0469C65.1474 3.14429 65.4221 3.34603 65.6245 3.65212C65.8413 3.94429 65.9498 4.27125 65.9498 4.63299V4.82082C65.9498 5.08516 65.8269 5.29386 65.5811 5.4469C65.3353 5.58603 65.0823 5.6069 64.8221 5.50951C63.7379 5.10603 62.6319 4.90429 61.5043 4.90429C60.7815 4.90429 60.2321 5.06429 59.8562 5.38429C59.4804 5.70429 59.2924 6.14951 59.2924 6.71995C59.2924 7.72169 59.9719 8.43821 61.3308 8.86951C63.2825 9.46777 64.6342 10.1495 65.3859 10.9147C66.1521 11.6799 66.5353 12.6678 66.5353 13.8782C66.5353 16.7999 64.6631 18.2608 60.9188 18.2608C59.7478 18.2608 58.6852 18.0869 57.7311 17.7391C57.3841 17.6139 57.1094 17.3982 56.9071 17.0921C56.7191 16.786 56.6251 16.4452 56.6251 16.0695V15.8191C56.6251 15.5547 56.7408 15.3669 56.9721 15.2556C57.2034 15.1304 57.442 15.1234 57.6877 15.2347C58.6419 15.6939 59.6466 15.9234 60.702 15.9234C62.538 15.9234 63.456 15.2556 63.456 13.9199C63.456 13.3773 63.2825 12.9321 62.9355 12.5843C62.5886 12.2226 62.0031 11.9026 61.179 11.6243Z" fill="#FF6700"/>
<path d="M71.2084 5.23821C70.8759 5.23821 70.5868 5.1269 70.341 4.90429C70.0952 4.66777 69.9723 4.38951 69.9723 4.06951V4.0069C69.9723 3.6869 70.0952 3.40864 70.341 3.17212C70.5868 2.9356 70.8759 2.81734 71.2084 2.81734H80.4463C80.7788 2.81734 81.0679 2.9356 81.3137 3.17212C81.5594 3.40864 81.6823 3.6869 81.6823 4.0069V4.06951C81.6823 4.38951 81.5594 4.66777 81.3137 4.90429C81.0679 5.1269 80.7788 5.23821 80.4463 5.23821H77.5405C77.4248 5.23821 77.367 5.30082 77.367 5.42603V16.8626C77.367 17.1826 77.2441 17.4608 76.9983 17.6973C76.7526 17.9339 76.4634 18.0521 76.1309 18.0521H75.5237C75.1912 18.0521 74.9021 17.9339 74.6563 17.6973C74.4106 17.4608 74.2877 17.1826 74.2877 16.8626V5.42603C74.2877 5.30082 74.2299 5.23821 74.1142 5.23821H71.2084Z" fill="#FF6700"/>
<path d="M89.1439 5.40516L87.2356 11.9582C87.2211 11.9999 87.2283 12.0417 87.2573 12.0834C87.2862 12.1252 87.3223 12.146 87.3657 12.146H90.9654C91.0088 12.146 91.0449 12.1252 91.0738 12.0834C91.1028 12.0417 91.11 11.9999 91.0955 11.9582L89.1872 5.40516C89.1872 5.39125 89.18 5.38429 89.1655 5.38429C89.1511 5.38429 89.1439 5.39125 89.1439 5.40516ZM83.5274 18.0521C83.2238 18.0521 82.9853 17.9339 82.8118 17.6973C82.6383 17.4608 82.6022 17.2034 82.7034 16.9252L87.1922 3.94429C87.3223 3.61038 87.5319 3.33908 87.8211 3.13038C88.1247 2.92169 88.4572 2.81734 88.8186 2.81734H89.5993C89.9751 2.81734 90.3076 2.92169 90.5968 3.13038C90.9004 3.33908 91.11 3.61038 91.2256 3.94429L95.7145 16.9252C95.8157 17.2034 95.7795 17.4608 95.606 17.6973C95.4325 17.9339 95.194 18.0521 94.8904 18.0521H94.1098C93.7628 18.0521 93.4375 17.9478 93.1339 17.7391C92.8448 17.5165 92.6496 17.2382 92.5484 16.9043L91.8545 14.546C91.8401 14.4347 91.7605 14.3791 91.616 14.3791H86.7151C86.585 14.3791 86.5055 14.4347 86.4766 14.546L85.7827 16.9043C85.6959 17.2382 85.5008 17.5165 85.1972 17.7391C84.908 17.9478 84.5828 18.0521 84.2213 18.0521H83.5274Z" fill="#FF6700"/>
<path d="M100.601 18.0521C100.268 18.0521 99.9789 17.9339 99.7332 17.6973C99.5018 17.4608 99.3862 17.1826 99.3862 16.8626V4.0069C99.3862 3.6869 99.5018 3.40864 99.7332 3.17212C99.9789 2.9356 100.268 2.81734 100.601 2.81734H101.186C101.519 2.81734 101.808 2.9356 102.053 3.17212C102.299 3.40864 102.422 3.6869 102.422 4.0069V8.74429C102.422 8.8556 102.48 8.91125 102.596 8.91125H108.017C108.133 8.91125 108.19 8.8556 108.19 8.74429V4.0069C108.19 3.6869 108.313 3.40864 108.559 3.17212C108.805 2.9356 109.094 2.81734 109.426 2.81734H110.012C110.344 2.81734 110.626 2.9356 110.858 3.17212C111.103 3.40864 111.226 3.6869 111.226 4.0069V16.8626C111.226 17.1826 111.103 17.4608 110.858 17.6973C110.626 17.9339 110.344 18.0521 110.012 18.0521H109.426C109.094 18.0521 108.805 17.9339 108.559 17.6973C108.313 17.4608 108.19 17.1826 108.19 16.8626V11.3321C108.19 11.2069 108.133 11.1443 108.017 11.1443H102.596C102.48 11.1443 102.422 11.2069 102.422 11.3321V16.8626C102.422 17.1826 102.299 17.4608 102.053 17.6973C101.808 17.9339 101.519 18.0521 101.186 18.0521H100.601Z" fill="#FF6700"/>
<path d="M126.538 10.4347C126.538 6.81734 125.165 5.00864 122.418 5.00864C119.671 5.00864 118.298 6.81734 118.298 10.4347C118.298 14.0521 119.671 15.8608 122.418 15.8608C125.165 15.8608 126.538 14.0521 126.538 10.4347ZM127.687 16.1947C126.401 17.5721 124.644 18.2608 122.418 18.2608C120.192 18.2608 118.428 17.5721 117.127 16.1947C115.84 14.8173 115.197 12.8973 115.197 10.4347C115.197 7.97212 115.84 6.05212 117.127 4.67473C118.428 3.29734 120.192 2.60864 122.418 2.60864C124.644 2.60864 126.401 3.29734 127.687 4.67473C128.989 6.05212 129.639 7.97212 129.639 10.4347C129.639 12.8973 128.989 14.8173 127.687 16.1947Z" fill="#FF6700"/>
<path d="M134.852 18.0521C134.519 18.0521 134.23 17.9339 133.984 17.6973C133.739 17.4608 133.616 17.1826 133.616 16.8626V4.0069C133.616 3.6869 133.739 3.40864 133.984 3.17212C134.23 2.9356 134.519 2.81734 134.852 2.81734H135.394C135.77 2.81734 136.117 2.91473 136.435 3.10951C136.753 3.30429 136.984 3.56169 137.129 3.88169L140.924 11.7704C140.924 11.7843 140.931 11.7913 140.945 11.7913C140.96 11.7913 140.967 11.7843 140.967 11.7704L144.762 3.88169C144.906 3.56169 145.138 3.30429 145.456 3.10951C145.774 2.91473 146.121 2.81734 146.497 2.81734H147.125C147.458 2.81734 147.747 2.9356 147.993 3.17212C148.239 3.40864 148.362 3.6869 148.362 4.0069V16.8626C148.362 17.1826 148.239 17.4608 147.993 17.6973C147.747 17.9339 147.458 18.0521 147.125 18.0521H146.648C146.316 18.0521 146.027 17.9339 145.781 17.6973C145.535 17.4608 145.412 17.1826 145.412 16.8626V7.7843C145.412 7.77038 145.405 7.76342 145.391 7.76342C145.376 7.76342 145.369 7.77038 145.369 7.7843L142.767 13.1478C142.608 13.4678 142.362 13.7321 142.029 13.9408C141.711 14.1356 141.372 14.233 141.01 14.233H140.88C140.519 14.233 140.172 14.1356 139.839 13.9408C139.521 13.7321 139.283 13.4678 139.124 13.1478L136.521 7.7843C136.521 7.77038 136.514 7.76342 136.5 7.76342C136.485 7.76342 136.478 7.77038 136.478 7.7843V16.8626C136.478 17.1826 136.355 17.4608 136.109 17.6973C135.864 17.9339 135.575 18.0521 135.242 18.0521H134.852Z" fill="#FF6700"/>
<path d="M154.539 18.0521C154.207 18.0521 153.918 17.9339 153.672 17.6973C153.426 17.4608 153.303 17.1826 153.303 16.8626V4.0069C153.303 3.6869 153.426 3.40864 153.672 3.17212C153.918 2.9356 154.207 2.81734 154.539 2.81734H161.912C162.245 2.81734 162.534 2.9356 162.78 3.17212C163.026 3.40864 163.148 3.6869 163.148 4.0069C163.148 4.3269 163.026 4.60516 162.78 4.84169C162.534 5.06429 162.245 5.1756 161.912 5.1756H156.534C156.404 5.1756 156.339 5.23821 156.339 5.36342V8.72343C156.339 8.84864 156.404 8.91125 156.534 8.91125H161.544C161.876 8.91125 162.151 9.02256 162.368 9.24516C162.599 9.46777 162.715 9.73212 162.715 10.0382C162.715 10.3443 162.599 10.6086 162.368 10.8313C162.151 11.0399 161.876 11.1443 161.544 11.1443H156.534C156.404 11.1443 156.339 11.2069 156.339 11.3321V15.506C156.339 15.6313 156.404 15.6939 156.534 15.6939H161.912C162.245 15.6939 162.534 15.8121 162.78 16.0486C163.026 16.2713 163.148 16.5426 163.148 16.8626C163.148 17.1826 163.026 17.4608 162.78 17.6973C162.534 17.9339 162.245 18.0521 161.912 18.0521H154.539Z" fill="#FF6700"/>
<path d="M172.035 11.6243C170.3 11.0678 169.042 10.393 168.262 9.59995C167.496 8.8069 167.112 7.8469 167.112 6.71995C167.112 5.45386 167.553 4.45212 168.435 3.71473C169.317 2.97734 170.553 2.60864 172.143 2.60864C173.488 2.60864 174.659 2.75473 175.656 3.0469C176.003 3.14429 176.278 3.34603 176.48 3.65212C176.697 3.94429 176.806 4.27125 176.806 4.63299V4.82082C176.806 5.08516 176.683 5.29386 176.437 5.4469C176.191 5.58603 175.938 5.6069 175.678 5.50951C174.594 5.10603 173.488 4.90429 172.36 4.90429C171.637 4.90429 171.088 5.06429 170.712 5.38429C170.336 5.70429 170.148 6.14951 170.148 6.71995C170.148 7.72169 170.828 8.43821 172.187 8.86951C174.138 9.46777 175.49 10.1495 176.242 10.9147C177.008 11.6799 177.391 12.6678 177.391 13.8782C177.391 16.7999 175.519 18.2608 171.775 18.2608C170.604 18.2608 169.541 18.0869 168.587 17.7391C168.24 17.6139 167.965 17.3982 167.763 17.0921C167.575 16.786 167.481 16.4452 167.481 16.0695V15.8191C167.481 15.5547 167.597 15.3669 167.828 15.2556C168.059 15.1304 168.298 15.1234 168.544 15.2347C169.498 15.6939 170.503 15.9234 171.558 15.9234C173.394 15.9234 174.312 15.2556 174.312 13.9199C174.312 13.3773 174.138 12.9321 173.791 12.5843C173.444 12.2226 172.859 11.9026 172.035 11.6243Z" fill="#FF6700"/>
</svg>
