<svg width="16" height="16" viewBox="0 0 16 16" fill="none" xmlns="http://www.w3.org/2000/svg">
<path fill-rule="evenodd" clip-rule="evenodd" d="M6.49915 0.552818C6.91781 0.195991 7.44991 0 8 0C8.55009 0 9.08219 0.195991 9.50085 0.552818L10.4811 1.38885C10.6048 1.49434 10.7587 1.55804 10.9207 1.57087L12.2049 1.67344C12.7529 1.71732 13.2675 1.95495 13.6563 2.34374C14.045 2.73253 14.2827 3.24707 14.3266 3.79515L14.4291 5.08005C14.4421 5.24184 14.5058 5.39541 14.6111 5.51889L15.4472 6.49915C15.804 6.91781 16 7.44991 16 8C16 8.55009 15.804 9.08219 15.4472 9.50085L14.6111 10.4811C14.5057 10.6048 14.442 10.7587 14.4291 10.9207L14.3266 12.2049C14.2827 12.7529 14.045 13.2675 13.6563 13.6563C13.2675 14.045 12.7529 14.2827 12.2049 14.3266L10.9199 14.4291C10.7582 14.4421 10.6046 14.5058 10.4811 14.6111L9.50085 15.4472C9.08219 15.804 8.55009 16 8 16C7.44991 16 6.91781 15.804 6.49915 15.4472L5.51889 14.6111C5.3952 14.5057 5.24134 14.442 5.07928 14.4291L3.79515 14.3266C3.24707 14.2827 2.73253 14.045 2.34374 13.6563C1.95495 13.2675 1.71732 12.7529 1.67344 12.2049L1.57087 10.9199C1.55788 10.7582 1.49419 10.6046 1.38885 10.4811L0.552818 9.50085C0.195991 9.08219 0 8.55009 0 8C0 7.44991 0.195991 6.91781 0.552818 6.49915L1.38885 5.51889C1.49434 5.3952 1.55804 5.24134 1.57087 5.07928L1.67344 3.79515C1.71732 3.24707 1.95495 2.73253 2.34374 2.34374C2.73253 1.95495 3.24707 1.71732 3.79515 1.67344L5.08005 1.57087C5.24184 1.55788 5.39541 1.49419 5.51889 1.38885L6.49915 0.552818ZM10.859 7.00277C10.9995 6.85732 11.0772 6.6625 11.0755 6.46028C11.0737 6.25806 10.9926 6.06462 10.8496 5.92162C10.7066 5.77863 10.5132 5.69752 10.311 5.69576C10.1088 5.694 9.91393 5.77174 9.76847 5.91223L7.22875 8.45195L6.23153 7.45473C6.08607 7.31424 5.89125 7.2365 5.68903 7.23826C5.48681 7.24001 5.29337 7.32113 5.15037 7.46412C5.00738 7.60712 4.92627 7.80056 4.92451 8.00278C4.92275 8.205 5.00049 8.39981 5.14098 8.54527L6.68348 10.0878C6.82811 10.2324 7.02424 10.3136 7.22875 10.3136C7.43326 10.3136 7.62939 10.2324 7.77402 10.0878L10.859 7.00277Z" fill="#2DAA0D"/>
</svg>
