<svg width="21" height="19" viewBox="0 0 21 19" fill="none" xmlns="http://www.w3.org/2000/svg">
<path d="M10.5 4.16656L11.3001 3.11104C12.2247 1.8898 13.6032 1 15.2498 1C16.11 0.999935 16.954 1.23345 17.6919 1.67562C18.4297 2.11778 19.0336 2.75201 19.4391 3.51058C19.8446 4.26916 20.0365 5.12362 19.9943 5.98275C19.9521 6.84188 19.6775 7.67343 19.1996 8.38864C18.3478 9.66159 10.5 17.8883 10.5 17.8883" fill="#FF8330"/>
<path d="M10.5 4.16656L11.3001 3.11104C12.2247 1.8898 13.6032 1 15.2498 1C16.11 0.999935 16.954 1.23345 17.6919 1.67562C18.4297 2.11778 19.0336 2.75201 19.4391 3.51058C19.8446 4.26916 20.0365 5.12362 19.9943 5.98275C19.9521 6.84188 19.6775 7.67343 19.1996 8.38864C18.3478 9.66159 10.5 17.8883 10.5 17.8883" stroke="#FF8330" stroke-width="2" stroke-linecap="round"/>
<path d="M10.5 4.16656L9.69995 3.11104C8.77532 1.8898 7.39681 1 5.7502 1C4.89004 0.999935 4.046 1.23345 3.30818 1.67562C2.57037 2.11778 1.96647 2.75201 1.56096 3.51058C1.15545 4.26916 0.963536 5.12362 1.00571 5.98275C1.04789 6.84188 1.32258 7.67343 1.80045 8.38864C2.65225 9.66159 10.5 17.8883 10.5 17.8883" fill="#FF8330"/>
<path d="M10.5 4.16656L9.69995 3.11104C8.77532 1.8898 7.39681 1 5.7502 1C4.89004 0.999935 4.046 1.23345 3.30818 1.67562C2.57037 2.11778 1.96647 2.75201 1.56096 3.51058C1.15545 4.26916 0.963536 5.12362 1.00571 5.98275C1.04789 6.84188 1.32258 7.67343 1.80045 8.38864C2.65225 9.66159 10.5 17.8883 10.5 17.8883" stroke="#FF8330" stroke-width="2" stroke-linecap="round"/>
</svg>
